<svg width="167" height="49" viewBox="0 0 167 49" fill="none" xmlns="http://www.w3.org/2000/svg">
<g clip-path="url(#clip0_97_2)">
<path d="M79.6768 36.0688V31.7248C82.1258 30.9492 85.0704 29.0192 88.0442 26.6401L95.0181 36.0688H79.6768Z" fill="#01B9AD"/>
<path d="M71 13.917H80.1955V29.6198C84.1839 27.9289 89.6941 21.7247 89.6941 13.917H101.712C101.712 13.917 96.6447 19.7596 90.942 24.9084H96.7846L105.065 36.0689H94.1257L87.8107 27.5673C85.0993 29.754 82.4112 31.5266 80.1955 32.2496V36.0689H71V13.917Z" fill="white"/>
<path d="M122.458 20.6168L112.738 16.8791C112.848 22.9434 114.318 30.8385 125.502 30.8385C130.155 30.8385 133.257 29.3166 134.75 28.3195V29.8181C132.697 31.9231 128.073 36.5179 119.881 36.5179C109.636 36.5179 103.985 29.8181 103.985 22.6693L112.738 13.917H130.155L122.458 20.6168Z" fill="white"/>
<path d="M154.033 20.6168L144.313 16.8791C144.424 22.9434 145.893 30.8385 157.077 30.8385C161.73 30.8385 164.832 29.3166 166.325 28.3195V29.8181C164.272 31.9231 159.648 36.5179 151.456 36.5179C141.211 36.5179 135.561 29.8181 135.561 22.6693L144.313 13.917H161.73L154.033 20.6168Z" fill="white"/>
</g>
<path d="M42.5381 24.5234C42.5272 28.0955 41.458 31.5842 39.4655 34.5489C37.4731 37.5137 34.6468 39.8215 31.3435 41.181C28.0402 42.5404 24.4082 42.8905 20.9061 42.187C17.404 41.4836 14.1889 39.7581 11.6669 37.2285C9.14479 34.6989 7.42889 31.4787 6.73586 27.9745C6.04284 24.4703 6.40376 20.8393 7.77305 17.5402C9.14235 14.241 11.4586 11.4215 14.4293 9.43794C17.3999 7.45434 20.8918 6.39553 24.4639 6.39524C29.2626 6.40892 33.8601 8.32496 37.2482 11.7232C40.6364 15.1215 42.5387 19.7247 42.5381 24.5234ZM24.4213 0.000126254C29.2693 -0.015434 34.0129 1.40764 38.0518 4.08923C42.0906 6.77081 45.243 10.5903 47.1101 15.0644C48.9772 19.5384 49.475 24.4658 48.5405 29.2229C47.6059 33.9799 45.281 38.3528 41.8601 41.788C38.4392 45.2232 34.0761 47.5662 29.323 48.5206C24.5699 49.4749 19.6404 48.9977 15.1587 47.1493C10.6769 45.3008 6.84424 42.1643 4.14585 38.1367C1.44746 34.1091 0.00463944 29.3714 0 24.5234C0.00343334 18.0381 2.57426 11.818 7.15049 7.22263C11.7267 2.62729 17.9361 0.0305812 24.4213 0.000126254ZM24.4213 48.1487C29.1025 48.164 33.6829 46.7896 37.5823 44.1995C41.4817 41.6095 44.5246 37.9204 46.3256 33.5995C48.1267 29.2786 48.6047 24.5204 47.6992 19.9276C46.7938 15.3348 44.5455 11.1141 41.2393 7.80013C37.9331 4.48614 33.7177 2.228 29.127 1.31177C24.5363 0.395532 19.777 0.862433 15.4519 2.65331C11.1269 4.44419 7.4306 7.47846 4.83142 11.3718C2.23224 15.2651 0.847082 19.8422 0.851402 24.5234C0.855246 30.7785 3.33797 36.7771 7.75578 41.2052C12.1736 45.6334 18.1663 48.1302 24.4213 48.1487ZM2.89806 20.517L4.09194 20.8124C4.26249 20.8124 4.39007 20.8581 4.56063 20.8581C4.68866 20.8124 4.81623 20.7731 4.94426 20.7273C5.0631 20.6507 5.16464 20.5501 5.24239 20.4319C5.33928 20.2573 5.41102 20.0698 5.45547 19.875C5.52262 19.6836 5.55152 19.4809 5.54052 19.2783C5.49799 19.1078 5.45547 18.9829 5.41249 18.8522C5.32327 18.7558 5.22323 18.67 5.11436 18.5966C4.97971 18.5227 4.83662 18.4654 4.6882 18.426L3.49477 18.1306C3.45224 18.0849 3.40926 18.0849 3.40926 18.0451V17.9537L3.36674 17.9139L3.11114 18.8517H3.15366L3.19618 18.8119C3.23871 18.7662 3.23871 18.7662 3.28123 18.8119L4.64567 19.1073C4.75542 19.1437 4.84694 19.221 4.90128 19.3231C4.94404 19.462 4.94404 19.6104 4.90128 19.7493C4.88839 19.8801 4.82765 20.0016 4.73072 20.0904C4.64567 20.1754 4.56017 20.1754 4.39007 20.1302L3.02563 19.8348C2.9831 19.7891 2.9831 19.7891 2.9831 19.7493C2.94058 19.7493 2.94058 19.7036 2.94058 19.7036H2.89806L2.68498 20.6021L2.77003 20.6418C2.77003 20.6021 2.81255 20.5563 2.81255 20.5165L2.89806 20.517ZM6.94748 15.3958L4.94426 14.5032C4.90173 14.4575 4.90173 14.4575 4.90173 14.4177V14.3322L4.85921 14.2865L4.43305 15.0995L4.51855 15.1393C4.51855 15.0995 4.56108 15.0995 4.56108 15.0542H4.64658L5.71199 15.5261C5.54143 15.5659 5.37087 15.6116 5.20078 15.6514C5.07275 15.6971 4.90264 15.7369 4.77461 15.7822C4.65849 15.8168 4.54458 15.8585 4.43351 15.907H4.30548C4.27365 15.903 4.24388 15.8891 4.22043 15.8672V15.7822L4.1779 15.7364L3.70876 16.8905L3.75174 16.9303C3.79427 16.8905 3.79427 16.8453 3.83679 16.8453C3.83679 16.8055 3.87932 16.8055 3.92184 16.8453L5.92461 17.7433C5.95646 17.7472 5.98624 17.7612 6.00966 17.7831C6.00966 17.8288 5.96713 17.8681 5.96713 17.9139H6.05218L6.35031 17.1009L6.30778 17.0611C6.27796 17.0881 6.24957 17.1166 6.22273 17.1466H6.13723L4.7737 16.5499V16.5042C4.98678 16.4644 5.19986 16.3789 5.45547 16.3336C5.6361 16.2647 5.82108 16.2077 6.0092 16.163C6.15423 16.0872 6.31433 16.0446 6.47788 16.0382C6.54391 16.0052 6.61721 15.9895 6.69096 15.9925C6.73348 15.9925 6.73348 16.0382 6.73348 16.078C6.69095 16.1237 6.69096 16.1237 6.69096 16.163L6.73348 16.2088L7.20262 15.3107H7.11574C7.0933 15.3341 7.07848 15.3638 7.07322 15.3958H6.94748ZM6.26526 11.9454L6.35077 11.9851V11.9454L6.39329 11.8996C6.43581 11.8996 6.4788 11.9454 6.60637 11.9847C6.7344 11.9847 8.35399 12.6248 8.43949 12.6669C8.50772 12.6931 8.57961 12.7085 8.65257 12.7126C8.65257 12.7524 8.69509 12.7524 8.69509 12.7981C8.65257 12.8379 8.65257 12.8379 8.65257 12.8832L8.69509 12.923L9.37685 12.0304L9.33433 11.9847C9.33433 12.0304 9.2918 12.0304 9.24882 12.0304C9.24882 12.0702 9.2063 12.0702 9.16377 12.0304C9.1298 11.9907 9.1012 11.9468 9.07872 11.8996C9.0362 11.7743 7.9708 10.0706 7.92782 10.0249V9.89962L7.8853 9.85389L7.33111 10.5361L7.37364 10.5818C7.40054 10.5521 7.42891 10.5237 7.45868 10.4968H7.50121C7.53536 10.5596 7.57849 10.617 7.62924 10.6674C7.67177 10.7529 8.26939 11.7305 8.311 11.8612C8.311 11.8612 7.03069 11.3894 6.99 11.3496C6.94299 11.3516 6.89704 11.3352 6.86197 11.3038V11.2641C6.86544 11.2314 6.88054 11.201 6.9045 11.1786L6.86197 11.1328L6.26526 11.9454ZM11.4651 9.17122L10.3997 10.1946L10.0161 9.76839L10.7408 9.08617H10.7834C10.8259 9.08617 10.8689 9.08618 10.8689 9.1319L10.9539 9.08617L10.3997 8.53473L10.3572 8.57451C10.3997 8.62024 10.4423 8.65955 10.4423 8.70528C10.4368 8.7049 10.4313 8.70565 10.4262 8.70748C10.421 8.70931 10.4163 8.71218 10.4123 8.71591C10.4083 8.71964 10.4052 8.72417 10.403 8.72918C10.4008 8.7342 10.3997 8.7396 10.3997 8.74506L9.67498 9.42728L9.37685 9.08617L10.4852 8.02306H10.5278C10.5507 8.02028 10.574 8.02238 10.596 8.02924C10.6181 8.0361 10.6385 8.04755 10.6558 8.06284L10.6983 8.02306L10.1441 7.46567L10.1016 7.5114C10.1441 7.55118 10.1866 7.59691 10.1441 7.59691V7.68241L8.39651 9.30245L8.43903 9.34223C8.47086 9.33826 8.50063 9.32434 8.52408 9.30245C8.54702 9.29967 8.57029 9.30177 8.59236 9.30863C8.61443 9.31549 8.63479 9.32694 8.65211 9.34223L10.1016 10.9225C10.1263 10.9444 10.1416 10.9751 10.1441 11.008C10.1389 11.0402 10.1241 11.07 10.1016 11.0935L10.1441 11.1786L11.8062 9.55851C11.8331 9.52856 11.8615 9.50003 11.8913 9.47301C11.9234 9.47585 11.9535 9.48993 11.9763 9.51278L12.0189 9.47301L11.5076 8.96134L11.4651 9.00112C11.5511 9.08388 11.5511 9.12961 11.4651 9.1694V9.17122ZM11.2946 6.95447L12.5292 8.79033V8.87584C12.5292 8.91562 12.4866 8.91561 12.4866 8.91561L12.5292 9.00066L13.2539 8.44922L13.2114 8.40349C13.1688 8.40349 13.1688 8.44922 13.1259 8.44922C13.0829 8.44922 13.0833 8.44922 13.0408 8.40349L12.6142 7.72127L13.0408 7.46521C13.0408 7.46521 13.595 7.76654 13.681 7.80632C13.7268 7.82969 13.7698 7.8584 13.809 7.89183V7.97734C13.7665 8.02307 13.7665 8.02306 13.724 8.06238L13.7665 8.10811L14.7038 7.5114L14.6613 7.46567C14.6188 7.46567 14.6188 7.5114 14.5763 7.5114C14.5337 7.5114 14.4912 7.46567 14.4482 7.46567L13.5959 7.08478C13.6653 6.93229 13.7223 6.7745 13.7665 6.6129C13.7646 6.43466 13.7207 6.25936 13.6384 6.10123C13.5072 5.90914 13.3103 5.7717 13.0847 5.71485C12.8533 5.71392 12.6282 5.78984 12.4446 5.93068L11.081 6.8685L11.1236 6.95401C11.1661 6.91423 11.1661 6.91423 11.2086 6.91423C11.2511 6.91423 11.252 6.91286 11.2946 6.95036V6.95447ZM12.36 7.38062L12.0193 6.86896L12.6137 6.4428C12.7418 6.35729 12.8268 6.31203 12.9128 6.3573C12.9978 6.3573 13.0408 6.39707 13.0833 6.48807C13.1156 6.52168 13.14 6.56206 13.1547 6.60627C13.1694 6.65049 13.1741 6.69742 13.1684 6.74367C13.1205 6.83392 13.0462 6.90735 12.9553 6.95401L12.36 7.38062ZM14.9599 6.3573L15.0879 7.17029H15.1305C15.1305 7.12456 15.1304 7.08524 15.173 7.08524C15.173 7.03951 15.173 7.03951 15.2155 7.03951C15.2521 7.01148 15.2975 6.99739 15.3435 6.99974C15.4311 7.0034 15.5183 6.98779 15.5991 6.95401C15.7272 6.91423 15.8122 6.91423 15.9407 6.8685C16.0692 6.82277 16.1963 6.783 16.3243 6.74322C16.4892 6.6797 16.6356 6.57614 16.7505 6.44189C16.869 6.37525 16.9597 6.26833 17.0061 6.14055C17.0551 6.033 17.0841 5.91741 17.0916 5.79945C17.0831 5.69613 17.054 5.59554 17.0061 5.50361C16.9877 5.43792 16.9554 5.37697 16.9113 5.32496C16.8672 5.27294 16.8123 5.2311 16.7505 5.20228C16.6349 5.13379 16.5006 5.10383 16.3669 5.11677C16.2216 5.12601 16.0783 5.15478 15.9407 5.20228C15.8105 5.23929 15.6823 5.28293 15.5566 5.33305C15.4457 5.36356 15.3309 5.37698 15.216 5.37283C15.1309 5.37283 15.0879 5.37283 15.0454 5.28778C15.0029 5.248 15.0029 5.20228 15.0454 5.11723C15.0879 5.07745 15.1309 5.03218 15.1734 4.9924C15.2196 4.94631 15.2794 4.91632 15.344 4.90689C15.3821 4.87206 15.4253 4.84323 15.472 4.82139C15.5571 4.77566 15.6426 4.77566 15.7276 4.73634C15.8127 4.73634 15.8986 4.69061 15.9837 4.69061H16.1542C16.1968 4.69061 16.2393 4.69061 16.2393 4.73634V4.77612H16.3248V3.96907L16.2393 4.00885V4.05458C16.1968 4.09436 16.1968 4.09436 16.1542 4.09436C16.119 4.12549 16.0732 4.14185 16.0262 4.14008C15.9558 4.15729 15.8845 4.17057 15.8127 4.17986C15.7276 4.22558 15.5996 4.22559 15.5145 4.26537C15.3982 4.3017 15.2843 4.34538 15.1734 4.39615C15.0056 4.47488 14.8482 4.5741 14.7048 4.69153C14.5767 4.82231 14.5342 4.94714 14.4492 5.03264C14.4166 5.1433 14.4023 5.2585 14.4066 5.37375C14.4066 5.50453 14.4492 5.58957 14.4492 5.67508C14.5342 5.80037 14.6197 5.93068 14.7473 5.97046C14.8703 6.01356 15.0012 6.02917 15.1309 6.01619C15.2623 6.00696 15.3916 5.9783 15.5145 5.93114C15.6851 5.88542 15.8127 5.84563 15.9412 5.80036C16.0375 5.77022 16.1384 5.75676 16.2393 5.76058C16.3248 5.76058 16.4098 5.76058 16.4524 5.84563V5.97092C16.4098 6.01665 16.4098 6.05642 16.3669 6.10169C16.3239 6.14696 16.2818 6.1872 16.2388 6.22698C16.1538 6.22698 16.1538 6.2727 16.1108 6.2727C15.9996 6.32145 15.8856 6.3633 15.7692 6.39799C15.6837 6.44372 15.5562 6.44371 15.4711 6.48943H15.173C15.0879 6.48943 15.0449 6.48945 15.0449 6.44372V6.35592L14.9599 6.3573ZM21.1826 2.60554L19.0093 3.03217C19.0093 3.07195 18.9668 3.03217 18.9668 3.03217C18.9243 3.03217 18.9243 2.98644 18.8817 2.94666H18.8392L19.0098 3.79943L19.0523 3.75371V3.6682C19.0948 3.62842 19.0948 3.62842 19.1373 3.62842L19.8616 3.49764L20.2027 5.20319V5.2887C20.1813 5.31453 20.1506 5.33093 20.1172 5.33442V5.41993L21.0546 5.20411L21.0121 5.16433H20.9705C20.9485 5.16238 20.9278 5.15274 20.9122 5.1371C20.8966 5.12147 20.8869 5.10084 20.885 5.07882L20.5443 3.32801L21.2677 3.20089H21.3532C21.3771 3.22326 21.3921 3.25343 21.3957 3.28594H21.4812L21.3107 2.47294H21.2256V2.55845L21.1826 2.60554ZM23.7826 4.77703V4.00977L24.5924 2.52049C24.5924 2.47477 24.5924 2.47477 24.6349 2.47477C24.6774 2.47477 24.6774 2.435 24.7204 2.435V2.38927H23.6975V2.47477H23.74C23.7826 2.47477 23.7826 2.47477 23.7826 2.52049C23.7804 2.57969 23.7659 2.63779 23.74 2.69106C23.6101 2.89405 23.4962 3.10686 23.3994 3.32755C23.3143 3.2425 22.9307 2.73084 22.8882 2.69106C22.8882 2.64533 22.8457 2.60555 22.8457 2.56028C22.8457 2.51501 22.8457 2.52049 22.8882 2.52049H22.9732V2.43544L21.8653 2.52049V2.60601H21.9504C21.9929 2.60601 21.9929 2.60601 21.9929 2.64579L23.0583 4.05548L23.1008 4.82276C23.1008 4.86254 23.1008 4.86254 23.0583 4.90827H23.0158V4.99377L23.9106 4.94805V4.86254H23.8255C23.8251 4.82047 23.8251 4.82047 23.7826 4.7752V4.77703ZM28.5563 2.73038C28.4007 2.7104 28.2432 2.7104 28.0876 2.73038C27.9083 2.728 27.7316 2.77311 27.5755 2.86114C27.428 2.95062 27.2979 3.06621 27.1918 3.20225C27.0651 3.3638 26.9776 3.55259 26.9362 3.75371C26.8828 3.95173 26.8978 4.16198 26.9787 4.35042C27.015 4.52122 27.0877 4.68218 27.1918 4.8223C27.3167 4.94353 27.4607 5.04333 27.618 5.11768C27.7635 5.20112 27.9224 5.25883 28.0876 5.28824C28.2552 5.32593 28.4271 5.34131 28.5988 5.33397C28.7609 5.29493 28.9182 5.23771 29.0675 5.16341C29.2216 5.10182 29.3548 4.99723 29.4511 4.86208C29.5865 4.68863 29.6746 4.48303 29.7067 4.26537C29.7564 4.06685 29.7415 3.85768 29.6642 3.6682C29.6187 3.51474 29.5466 3.37047 29.4511 3.24204C29.328 3.10654 29.1841 2.99141 29.025 2.90093C28.8787 2.81941 28.7205 2.76125 28.5563 2.72855V2.73038ZM28.4282 3.32709C28.5309 3.36274 28.6306 3.40647 28.7264 3.45787C28.8031 3.49055 28.8642 3.55166 28.8969 3.62842C28.982 3.71392 28.982 3.79897 29.025 3.88402V4.13963C29.0262 4.19518 29.0153 4.25033 28.9932 4.30132C28.9711 4.3523 28.9383 4.39791 28.8969 4.43501C28.8642 4.51171 28.8031 4.5728 28.7264 4.60556C28.6492 4.65393 28.5615 4.6831 28.4708 4.69061C28.4243 4.71331 28.3734 4.72512 28.3217 4.72512C28.27 4.72512 28.2191 4.71331 28.1726 4.69061C28.0819 4.68314 27.9942 4.65397 27.917 4.60556C27.8315 4.56578 27.7885 4.48028 27.746 4.43501C27.661 4.34951 27.661 4.26446 27.618 4.17941V3.88402C27.6213 3.83504 27.6343 3.78721 27.6563 3.74332C27.6782 3.69943 27.7088 3.66036 27.746 3.62842C27.7786 3.55141 27.8399 3.49021 27.917 3.45787C28.0021 3.37236 28.0876 3.37236 28.1726 3.32709H28.4282ZM30.6861 3.45787L29.9623 5.54384C29.9589 5.57652 29.9438 5.60686 29.9198 5.62935C29.8969 5.63213 29.8736 5.63003 29.8515 5.62317C29.8294 5.61631 29.8091 5.60486 29.7918 5.58957V5.67508L30.7314 5.97046V5.88495C30.6857 5.88495 30.6857 5.84517 30.6459 5.84517C30.6459 5.79944 30.6002 5.79944 30.6459 5.76012L30.9015 4.99286L31.7936 5.33397C31.7936 5.33397 31.8393 5.33397 31.8393 5.37375C31.8791 5.37375 31.8791 5.41947 31.8393 5.50452H31.9248L32.1352 4.77703L32.0954 4.73725C32.0954 4.82229 32.0497 4.8223 32.0497 4.86208H31.9646L31.0725 4.52097L31.2431 4.00931L32.5613 4.48119C32.567 4.48055 32.5727 4.48111 32.5782 4.4828C32.5836 4.4845 32.5886 4.4873 32.5929 4.49104C32.5972 4.49478 32.6007 4.49937 32.6031 4.50452C32.6056 4.50967 32.6069 4.51527 32.6071 4.52097C32.6165 4.52908 32.624 4.53913 32.6291 4.55041C32.6343 4.5617 32.637 4.57395 32.637 4.58636C32.637 4.59877 32.6343 4.61102 32.6291 4.6223C32.624 4.63359 32.6165 4.64364 32.6071 4.65175L32.6926 4.69153L32.9482 3.92426H32.8627C32.8583 3.95738 32.8421 3.98779 32.8169 4.00977H32.7319L30.6011 3.2425L30.5613 3.32755C30.6011 3.32755 30.6464 3.37328 30.6861 3.37328V3.45787ZM34.9075 6.74367L35.8846 7.38017L35.4187 8.10765C35.4187 8.14743 35.373 8.14743 35.3336 8.14743C35.3014 8.14511 35.2711 8.13094 35.2486 8.10765L35.2029 8.1927L36.014 8.74277L36.0538 8.70299C36.014 8.65727 36.014 8.61749 35.9683 8.61749V8.53244L37.1613 6.65771C37.1613 6.61198 37.207 6.61198 37.2463 6.61198C37.2629 6.61344 37.2791 6.61824 37.2938 6.6261C37.3085 6.63396 37.3214 6.64471 37.3318 6.65771L37.3776 6.57266L36.565 6.01527L36.5253 6.05505C36.5507 6.08614 36.5792 6.11463 36.6103 6.1401C36.6103 6.18583 36.6103 6.18582 36.5646 6.2256L36.1837 6.86577L35.2006 6.26904L35.6268 5.62889C35.6268 5.58911 35.6725 5.58911 35.6725 5.58911H35.7978V5.54338L34.9473 5.02989L34.9075 5.11494C34.9293 5.1174 34.9497 5.12719 34.9652 5.14273C34.9808 5.15826 34.9905 5.17861 34.993 5.20044C35.0328 5.20044 35.0328 5.24617 34.993 5.28595L33.8398 7.16754C33.8 7.20732 33.8 7.20732 33.7548 7.20732C33.7095 7.20732 33.715 7.16754 33.6693 7.16754L33.6295 7.20732L34.4818 7.719L34.5216 7.67921C34.4948 7.64905 34.4662 7.62049 34.4361 7.5937V7.5082L34.9075 6.74367ZM38.0625 10.4954L38.657 11.1319L38.7425 11.0464C38.6967 11.0464 38.6967 11.0464 38.6967 11.0066C38.657 11.0066 38.657 10.9609 38.6967 10.9609C38.6967 10.8361 39.4238 8.74369 39.4238 8.65864C39.4441 8.61198 39.4731 8.56961 39.5093 8.53381C39.5093 8.48808 39.549 8.48808 39.5943 8.53381L39.6341 8.44831L38.8275 7.72082L38.7818 7.80587C38.8275 7.80587 38.8275 7.85159 38.7818 7.89137C38.7141 7.92553 38.6438 7.95413 38.5714 7.97688C38.4407 8.06193 36.8215 8.87493 36.5659 9.00022H36.4407L36.3949 9.04593L37.0351 9.5576L37.0749 9.47209H37.0351V9.38659H37.1201C37.2135 9.32129 37.3123 9.26422 37.4155 9.21603L38.3131 10.0231C38.3131 10.0688 38.2281 10.3244 38.2281 10.3642C38.1823 10.4099 38.1823 10.4099 38.1823 10.4492H38.1425C38.0968 10.4492 38.0968 10.4492 38.0968 10.4095L38.0625 10.4954ZM38.4887 9.59739L37.843 8.99883L38.8261 8.5329L38.4887 9.59739ZM42.1531 16.2938L42.5395 17.1009L42.5793 17.0611V16.976C42.6643 16.8905 44.0278 15.1854 44.1133 15.1013C44.1591 15.0163 44.1984 14.9705 44.2441 14.9705C44.2772 14.9747 44.3075 14.991 44.3292 15.0163L44.3689 14.9705L43.8577 14.0327H43.8179C43.8179 14.0784 43.818 14.1178 43.7722 14.1178C43.7722 14.1635 43.6872 14.1635 43.5619 14.1635C43.3913 14.2033 41.6017 14.3738 41.3008 14.3738H41.2551C41.2498 14.374 41.2446 14.373 41.2397 14.3711C41.2348 14.3691 41.2304 14.3662 41.2267 14.3625C41.2229 14.3587 41.22 14.3543 41.2181 14.3494C41.2161 14.3445 41.2152 14.3393 41.2153 14.334L41.1302 14.3738L41.5166 15.056L41.6017 15.0163V14.9705C41.5559 14.9705 41.6017 14.9308 41.6017 14.9308H41.6867C41.7265 14.9308 41.9821 14.885 42.0278 14.885L42.5788 15.9536C42.5788 15.9934 42.3685 16.2092 42.3685 16.249L42.3227 16.2947H42.2372V16.249L42.1531 16.2938ZM42.8801 15.6116L42.454 14.8443L43.5619 14.7588L42.8801 15.6116ZM41.3406 10.2796L40.7461 9.59739L40.7064 9.6431V9.68288C40.7048 9.6994 40.7 9.71545 40.6922 9.73006C40.6843 9.74467 40.6736 9.75756 40.6606 9.76793L39.3424 11.6038C39.2818 11.6111 39.2207 11.5947 39.1718 11.5581L39.1261 11.6038L39.8079 12.4108L39.8536 12.3711C39.8536 12.3253 39.8536 12.3253 39.8079 12.286C39.8079 12.2403 39.8079 12.2403 39.8536 12.2403C39.8536 12.2005 39.8934 12.2005 39.9784 12.1548C40.0241 12.1548 41.0013 11.8137 41.0863 11.7739C41.1341 11.7755 41.1807 11.7592 41.2171 11.7282H41.2569C41.2171 11.7739 41.1718 11.8137 41.1321 11.8589C41.0863 11.9445 40.5376 12.7972 40.4919 12.837C40.4521 12.9221 40.4069 12.9678 40.3671 12.9678C40.3671 12.9678 40.3214 12.9678 40.2363 12.8823L40.1965 12.9221L40.7909 13.8206L40.876 13.7748C40.8303 13.6893 40.8303 13.6495 40.876 13.6043C40.876 13.6043 42.8815 12.837 42.9213 12.837C42.967 12.7972 42.967 12.7972 43.0063 12.7972C43.0457 12.7972 43.0918 12.7972 43.0918 12.837L43.1769 12.7972L42.7109 12.0697L42.6652 12.1155C42.6652 12.1552 42.6652 12.201 42.7109 12.201C42.705 12.2336 42.689 12.2635 42.6652 12.2865C42.6254 12.3263 41.3017 12.8379 41.256 12.8832V12.8375C41.256 12.8375 42.0287 11.7291 42.0685 11.6893C42.0893 11.6412 42.118 11.597 42.1536 11.5585H42.2386L42.3241 11.6436L42.3698 11.6038L41.7297 10.751L41.6899 10.7908V10.8763C41.7297 10.922 41.6899 10.922 41.6899 10.9614C41.6442 10.9614 41.6049 11.0071 41.5591 11.0071C41.4736 11.0469 40.2331 11.473 40.1956 11.473C40.2354 11.4332 41.0877 10.2791 41.133 10.2791C41.133 10.2394 41.1728 10.2394 41.218 10.2394L41.3035 10.3249L41.3406 10.2796ZM45.3914 17.6125L45.0507 16.6349H45.0109V16.7602C45.0109 16.8059 45.0109 16.806 44.9652 16.8457L42.8801 17.5732C42.8344 17.613 42.8344 17.5732 42.7951 17.5732C42.7951 17.5275 42.7494 17.4877 42.7494 17.4424L42.6639 17.4882L43.0045 18.4717L43.09 18.426C43.0748 18.4092 43.0633 18.3893 43.0565 18.3677C43.0496 18.3461 43.0475 18.3232 43.0502 18.3007C43.0721 18.2757 43.1023 18.2594 43.1353 18.255L45.1806 17.4877C45.2203 17.4877 45.2661 17.4877 45.2661 17.5275C45.3059 17.5275 45.3059 17.5732 45.3511 17.6125H45.3914ZM18.1145 3.28731L17.0916 3.62842L17.1341 3.71393C17.1504 3.69679 17.1704 3.68372 17.1927 3.67578C17.2149 3.66783 17.2387 3.66524 17.2622 3.6682C17.3047 3.6682 17.3047 3.71393 17.3047 3.75371L18.029 5.84563C18.029 5.88541 18.029 5.88542 17.9864 5.93114C17.9629 5.95311 17.9329 5.96705 17.9009 5.97092V6.05642L18.8817 5.71531V5.67553H18.7537C18.7107 5.67553 18.7107 5.67554 18.6677 5.62981L17.986 3.54337C17.9831 3.51978 17.9854 3.49586 17.9928 3.47327C18.0001 3.45068 18.0123 3.42997 18.0285 3.4126C18.0608 3.40986 18.0911 3.39577 18.114 3.37282L18.1145 3.28731ZM5.88117 12.5402L5.32744 13.4328H5.41249C5.41249 13.393 5.45501 13.393 5.45501 13.3478H5.58304L7.45777 14.5019C7.5003 14.5416 7.50029 14.5416 7.50029 14.5869C7.50029 14.6322 7.45777 14.6724 7.45777 14.7122L7.50029 14.7579L8.05402 13.8599L7.96897 13.8201C7.96371 13.8521 7.94889 13.8817 7.92645 13.9051C7.91864 13.9145 7.90885 13.9221 7.89779 13.9273C7.88673 13.9325 7.87467 13.9352 7.86244 13.9352C7.85022 13.9352 7.83815 13.9325 7.82708 13.9273C7.81602 13.9221 7.80623 13.9145 7.79842 13.9051L5.92369 12.751C5.88116 12.751 5.88117 12.7113 5.88117 12.666C5.90513 12.6435 5.92021 12.6132 5.92369 12.5805L5.88117 12.5402ZM46.1573 20.6011L45.9469 19.5778H45.9012V19.7026C45.9012 19.7484 45.8614 19.7484 45.8162 19.7484L43.6854 20.2143C43.6629 20.217 43.6402 20.2148 43.6186 20.208C43.5971 20.2011 43.5773 20.1897 43.5605 20.1745C43.559 20.158 43.5542 20.1419 43.5464 20.1273C43.5385 20.1127 43.5278 20.0998 43.5148 20.0895H43.475L43.6854 21.1128H43.7311V20.982C43.7326 20.96 43.742 20.9392 43.7577 20.9236C43.7733 20.9079 43.7941 20.8985 43.8161 20.897L45.9465 20.4704C45.9581 20.4595 45.9733 20.4535 45.9892 20.4535C46.0051 20.4535 46.0204 20.4595 46.032 20.4704C46.0717 20.5161 46.0718 20.5559 46.117 20.6011H46.1573ZM46.1175 18.9354L46.288 18.8956C46.2025 18.8101 46.1573 18.725 46.0722 18.64C45.9872 18.5549 45.9016 18.5092 45.8166 18.4242C45.7086 18.3765 45.5932 18.3476 45.4755 18.3386C45.3601 18.3342 45.2449 18.3496 45.1348 18.3844C45.0232 18.4146 44.9214 18.4734 44.8395 18.5549C44.794 18.5976 44.7619 18.6525 44.7468 18.713C44.7317 18.7735 44.7343 18.837 44.7544 18.8961C44.7644 18.9479 44.7847 18.9971 44.8139 19.041C44.8432 19.0849 44.881 19.1225 44.925 19.1517C45.029 19.2093 45.1516 19.2236 45.2661 19.1914C45.3754 19.1572 45.467 19.0817 45.5217 18.9811C45.5614 18.8709 45.5614 18.7502 45.5217 18.64C45.642 18.6225 45.7644 18.653 45.8623 18.725C45.9586 18.781 46.0454 18.852 46.1193 18.9354H46.1175ZM29.1951 43.3709L29.8352 43.1578L29.1951 43.3709ZM29.1534 43.2433L29.2385 43.4989L29.8786 43.2858L29.7936 43.0302L29.1534 43.2433ZM40.2322 39.4911L40.7434 38.9795L40.7036 38.9337H40.5728L39.4251 38.6383C39.4251 38.5533 39.3794 38.1665 39.3794 38.0416C39.3469 37.9606 39.3333 37.8731 39.3396 37.786C39.3396 37.7005 39.3794 37.6553 39.3794 37.6155L39.3396 37.5697L38.8682 38.1267L38.9139 38.1665C38.9138 38.1612 38.9147 38.156 38.9167 38.1511C38.9187 38.1462 38.9216 38.1418 38.9253 38.138C38.929 38.1343 38.9335 38.1314 38.9383 38.1294C38.9432 38.1275 38.9484 38.1265 38.9537 38.1267H39.0392V38.2122C39.0392 38.252 39.0849 38.2977 39.0849 38.3827C39.0849 38.4225 39.1247 39.1898 39.1247 39.2355L38.5303 38.6383C38.4905 38.6383 38.4905 38.6383 38.5303 38.5926V38.5071H38.4905L38.0186 38.979L38.0644 39.0188C38.0642 39.0135 38.0652 39.0083 38.0671 39.0034C38.0691 38.9985 38.072 38.9941 38.0757 38.9904C38.0795 38.9866 38.0839 38.9837 38.0888 38.9818C38.0937 38.9798 38.0989 38.9789 38.1041 38.979C38.1499 38.9333 38.1499 38.979 38.1892 38.979L39.3822 40.1729C39.3878 40.1722 39.3935 40.1728 39.399 40.1745C39.4044 40.1762 39.4095 40.179 39.4138 40.1827C39.4181 40.1865 39.4215 40.1911 39.424 40.1962C39.4264 40.2014 39.4277 40.207 39.4279 40.2127C39.4279 40.2584 39.4279 40.2584 39.3822 40.2982H39.4279L39.8938 39.8715V39.8318C39.854 39.8318 39.854 39.8318 39.8088 39.8715C39.8035 39.8717 39.7983 39.8707 39.7934 39.8688C39.7885 39.8668 39.7841 39.8639 39.7804 39.8602C39.7766 39.8565 39.7737 39.852 39.7718 39.8471C39.7698 39.8423 39.7689 39.837 39.769 39.8318L39.5134 39.5762L39.4279 39.1043C39.6755 39.1497 39.9175 39.2221 40.1494 39.3201H40.2345C40.2345 39.3599 40.2802 39.3599 40.2345 39.4056V39.4911H40.2322ZM30.6016 45.461L31.1585 45.2904L31.1128 45.2054H31.073C30.9879 45.1199 30.0908 43.8405 30.0483 43.798C30.0058 43.7129 29.9628 43.7129 29.9628 43.6699C29.9626 43.6643 29.9637 43.6587 29.9658 43.6535C29.9679 43.6483 29.971 43.6436 29.975 43.6396C29.9789 43.6356 29.9837 43.6325 29.9889 43.6304C29.9941 43.6283 29.9997 43.6273 30.0053 43.6274V43.5849L29.281 43.7554V43.8409H29.3235V44.054C29.3235 44.1821 29.2385 45.4614 29.1955 45.7175V45.76H29.153V45.8026L29.6642 45.6745V45.632H29.6217V45.2909L30.4305 45.0778C30.4836 45.1426 30.5276 45.2143 30.5613 45.2909L30.6011 45.3334V45.3759H30.5613L30.6016 45.461ZM30.2184 44.8208L29.6647 44.9489L29.7497 44.1382L30.2184 44.8208ZM35.9706 43.0298L36.442 42.6887V42.6461L36.3963 42.6887C36.3565 42.6887 36.3565 42.6887 36.3565 42.6461C36.2715 42.6036 35.0305 41.6224 34.993 41.5798C34.9555 41.5373 34.9075 41.4943 34.9075 41.4943C34.8618 41.4518 34.9075 41.4518 34.9075 41.4518V41.3663L34.2673 41.7499V41.7925C34.3131 41.7925 34.3131 41.7925 34.3524 41.835C34.3548 41.8945 34.3704 41.9528 34.3981 42.0055C34.3981 42.1336 34.6537 43.413 34.6935 43.626V43.6686C34.6935 43.7111 34.6935 43.7111 34.6537 43.7111L34.6935 43.7536L35.1649 43.498L35.1192 43.4555H35.0794C35.0794 43.413 35.0794 43.413 35.0337 43.37C35.0337 43.37 35.0337 43.1569 34.9939 43.1569L35.7155 42.7307C35.7811 42.7833 35.8537 42.8264 35.9313 42.8588C35.9309 42.8642 35.9317 42.8697 35.9335 42.8748C35.9353 42.88 35.9382 42.8847 35.9419 42.8887C35.9456 42.8927 35.9502 42.8959 35.9552 42.898C35.9602 42.9002 35.9656 42.9013 35.9711 42.9013V42.9438C35.9714 42.9493 35.9707 42.9547 35.9689 42.9599C35.967 42.965 35.9642 42.9697 35.9604 42.9737C35.9567 42.9777 35.9522 42.9809 35.9472 42.9831C35.9421 42.9852 35.9367 42.9864 35.9313 42.9863L35.9706 43.0298ZM35.4594 42.5181L34.9482 42.8167L34.7776 42.006L35.4594 42.5181ZM41.8115 37.6543L42.1522 37.1884L42.1124 37.1427H42.0667V37.1884C41.9812 37.1427 40.4869 36.6767 40.4018 36.6315C40.3567 36.6341 40.3123 36.6199 40.277 36.5917V36.546L40.2313 36.5062L39.7653 37.1029H39.8902C39.8902 37.1029 39.9359 37.1884 39.9752 37.2734C40.0607 37.3585 40.742 38.4673 40.8728 38.6777V38.7632H40.9126L41.2532 38.3823L41.2135 38.3366C41.2074 38.3366 41.2015 38.3377 41.196 38.34C41.1904 38.3423 41.1854 38.3457 41.1811 38.3499C41.1769 38.3542 41.1735 38.3592 41.1712 38.3648C41.1689 38.3703 41.1677 38.3763 41.1677 38.3823L41.1279 38.3366V38.2968C41.0822 38.2968 40.9972 38.1262 40.9574 38.0805L41.4686 37.444C41.5143 37.444 41.6844 37.5295 41.7242 37.5295H41.7699L41.8097 37.5693L41.7699 37.615L41.8115 37.6543ZM41.1714 37.359L40.7909 37.8253L40.3648 37.1034L41.1714 37.359ZM28.5151 43.9681L28.4726 43.84C28.424 43.8928 28.3662 43.9362 28.302 43.9681C28.2595 44.0106 28.217 44.0961 28.174 44.1386C28.1315 44.2241 28.1315 44.3092 28.089 44.3942V44.6498L28.217 44.9063C28.2595 44.9919 28.345 44.9918 28.4301 44.9918C28.4942 44.9599 28.552 44.9165 28.6006 44.8638C28.6316 44.8297 28.6521 44.7873 28.6596 44.7418C28.6672 44.6963 28.6614 44.6496 28.6432 44.6073C28.644 44.5633 28.6324 44.5201 28.6097 44.4824C28.5871 44.4447 28.5543 44.4141 28.5151 44.3942C28.4497 44.3598 28.3757 44.345 28.302 44.3517C28.2909 44.2779 28.306 44.2025 28.3446 44.1386C28.3857 44.0536 28.4694 44.0106 28.5151 43.9681ZM31.4548 43.0728L30.773 43.3284L30.8188 43.3709H30.9043C30.9097 43.3709 30.9151 43.372 30.9201 43.3742C30.9252 43.3763 30.9297 43.3795 30.9334 43.3835C30.9371 43.3875 30.94 43.3922 30.9418 43.3974C30.9437 43.4025 30.9444 43.408 30.944 43.4134L31.501 44.9914C31.5408 45.0339 31.5408 45.0764 31.501 45.0764C31.4776 45.0989 31.4479 45.1137 31.4159 45.119L31.4557 45.1615L32.0959 44.9484V44.8629C32.0735 44.8868 32.0433 44.9018 32.0108 44.9054C32.005 44.9059 31.9991 44.9051 31.9935 44.9032C31.988 44.9012 31.9829 44.8982 31.9786 44.8942C31.9743 44.8902 31.9709 44.8853 31.9686 44.8799C31.9663 44.8746 31.9651 44.8688 31.9651 44.8629L31.3707 43.2424C31.3706 43.2365 31.3718 43.2307 31.3742 43.2254C31.3765 43.22 31.3799 43.2151 31.3842 43.2112C31.3885 43.2072 31.3936 43.2041 31.3991 43.2021C31.4047 43.2002 31.4105 43.1994 31.4164 43.1999C31.416 43.1944 31.4168 43.189 31.4186 43.1838C31.4204 43.1787 31.4233 43.1739 31.427 43.17C31.4307 43.166 31.4353 43.1628 31.4403 43.1606C31.4453 43.1585 31.4507 43.1573 31.4562 43.1574L31.4548 43.0728ZM36.9093 39.9571L36.3583 40.3832V40.4289C36.3908 40.423 36.4205 40.407 36.4434 40.3832C36.4832 40.3832 36.4832 40.3832 36.5289 40.4289L37.5518 41.7504C37.5916 41.7929 37.5916 41.7929 37.5518 41.8359C37.5518 41.8418 37.5506 41.8476 37.5483 41.8529C37.5459 41.8583 37.5425 41.8632 37.5382 41.8672C37.5339 41.8712 37.5289 41.8742 37.5233 41.8762C37.5178 41.8781 37.5119 41.8789 37.5061 41.8784L37.5518 41.9209L38.1028 41.4943L38.063 41.4518C38.0395 41.4742 38.0099 41.489 37.9779 41.4943C37.9779 41.4943 37.9322 41.4943 37.9322 41.4518L36.8696 40.1258V40.0407C36.8748 40.0409 36.88 40.0399 36.8849 40.038C36.8898 40.036 36.8943 40.0331 36.898 40.0294C36.9017 40.0256 36.9046 40.0212 36.9066 40.0163C36.9085 40.0114 36.9095 40.0062 36.9093 40.0009V39.9571ZM34.2276 43.84L33.5458 42.3046C33.5001 42.2621 33.5001 42.2621 33.5458 42.2195L33.5856 42.177V42.1345L32.9912 42.4335L33.0369 42.4761H33.1219L33.1617 42.5186L33.5028 43.2858C33.4173 43.2433 32.736 42.8597 32.6505 42.8167C32.6185 42.8114 32.5889 42.7966 32.5655 42.7742V42.6891H32.6112L32.5655 42.6036L31.7986 42.9447L31.8444 42.9873H31.8841C31.89 42.9868 31.8959 42.9876 31.9014 42.9895C31.9069 42.9915 31.912 42.9945 31.9163 42.9985C31.9206 43.0025 31.924 43.0074 31.9264 43.0127C31.9287 43.0181 31.9299 43.0239 31.9299 43.0298L32.6514 44.5648V44.6503L32.6116 44.6928V44.7353L33.1626 44.4797V44.4372C33.1228 44.4372 33.1228 44.4797 33.0776 44.4797C33.078 44.4743 33.0772 44.4688 33.0754 44.4637C33.0735 44.4585 33.0707 44.4538 33.0669 44.4498C33.0632 44.4458 33.0587 44.4426 33.0537 44.4405C33.0487 44.4383 33.0433 44.4372 33.0378 44.4372L32.5664 43.3713V43.3288C32.8322 43.5163 33.1181 43.6737 33.4187 43.798C33.5153 43.8613 33.616 43.9183 33.72 43.9685C33.8051 44.011 33.8448 44.0536 33.8448 44.0965V44.1391C33.8051 44.1391 33.8051 44.1816 33.7598 44.1816L33.8055 44.2241L34.3999 43.9255L34.3542 43.883H34.2692L34.2276 43.84ZM45.3068 30.3214L43.6872 29.8097C43.6819 29.8098 43.6767 29.8089 43.6718 29.807C43.6669 29.805 43.6625 29.8021 43.6588 29.7983C43.6551 29.7946 43.6521 29.7902 43.6502 29.7853C43.6482 29.7804 43.6473 29.7752 43.6474 29.7699V29.6844H43.6017L43.3913 30.2812H43.4769V30.2354C43.5166 30.1956 43.5166 30.1956 43.5619 30.2354L44.4142 30.491C44.2834 30.5368 43.5166 30.7924 43.4769 30.7924C43.3913 30.8321 43.3913 30.8321 43.3461 30.8321L43.3063 30.7924V30.7466L43.2606 30.7069L42.9652 31.5139L43.0507 31.5596C43.0507 31.5139 43.0507 31.4741 43.0905 31.4741H43.1362L44.7553 31.9858C44.7606 31.9857 44.7658 31.9866 44.7707 31.9886C44.7756 31.9905 44.78 31.9934 44.7837 31.9972C44.7875 32.0009 44.7904 32.0053 44.7923 32.0102C44.7943 32.0151 44.7952 32.0203 44.7951 32.0256V32.1111H44.8408L45.0512 31.5596L45.0114 31.5139C45.0114 31.5596 44.9657 31.5596 44.9657 31.5994H44.8806L43.7727 31.2185C43.9432 31.1728 44.5852 30.9629 44.7101 30.9172C44.8137 30.8836 44.9145 30.8417 45.0114 30.7919C45.0964 30.7919 45.1819 30.7462 45.1819 30.7919C45.2217 30.7919 45.2217 30.7919 45.2217 30.8317V30.8774L45.2674 30.9172L45.438 30.2807L45.3923 30.235C45.3891 30.267 45.3751 30.297 45.3525 30.32L45.3068 30.3214ZM41.4316 34.9712L42.8806 35.824C42.903 35.8473 42.9333 35.8615 42.9656 35.8637C42.9656 35.8759 42.9608 35.8875 42.9522 35.8961C42.9437 35.9046 42.932 35.9095 42.9199 35.9095L42.9656 35.9492L43.3068 35.4376L43.261 35.3978L43.2212 35.4376H43.1357L42.6643 35.1422L42.8801 34.8011C42.926 34.7228 42.955 34.6357 42.9652 34.5455C42.9974 34.4784 43.0111 34.4039 43.005 34.3297C42.9975 34.2389 42.9683 34.1512 42.9199 34.0741C42.8425 33.995 42.7568 33.9244 42.6643 33.8637C42.573 33.8148 42.4723 33.7858 42.3689 33.7787H42.1133C42.0443 33.8219 41.986 33.8802 41.9428 33.9492C41.8831 34.0032 41.8262 34.0601 41.7722 34.1198L41.3008 34.9268L41.3406 34.9726C41.3527 34.9726 41.3643 34.9677 41.3729 34.9592C41.3815 34.9506 41.3863 34.939 41.3863 34.9268C41.3979 34.9273 41.409 34.9322 41.4171 34.9405C41.4253 34.9488 41.43 34.96 41.4302 34.9716L41.4316 34.9712ZM42.3689 34.9255L41.8975 34.6698L42.0681 34.3745L42.2386 34.2039C42.3152 34.2189 42.3884 34.2478 42.4544 34.2894C42.5399 34.3292 42.5797 34.3745 42.5797 34.4142C42.586 34.5014 42.5724 34.5888 42.5399 34.6698L42.3689 34.9255ZM42.5395 32.5381C42.4851 32.6438 42.4559 32.7605 42.454 32.8793C42.4472 32.9944 42.4606 33.1099 42.4938 33.2204C42.5499 33.3433 42.6225 33.4581 42.7096 33.5615C42.8223 33.6662 42.9509 33.7524 43.0905 33.8171C43.2429 33.8674 43.4015 33.8962 43.5619 33.9026C43.6823 33.9201 43.8047 33.8893 43.9026 33.8171C44.0169 33.7725 44.1184 33.7002 44.1979 33.6067C44.27 33.5328 44.3278 33.4461 44.3685 33.3511C44.4173 33.2435 44.4461 33.1279 44.4535 33.01C44.4658 32.7652 44.3918 32.5238 44.2446 32.3278C44.1138 32.2423 43.989 32.1572 43.8582 32.0722C43.7197 31.9848 43.5528 31.9542 43.3923 31.9867C43.2622 31.9802 43.1319 31.9936 43.0059 32.0265C42.9208 32.112 42.7955 32.1573 42.7503 32.2423C42.6647 32.3295 42.5931 32.4295 42.5381 32.5386L42.5395 32.5381ZM42.9656 32.7087L43.0909 32.5839C43.1399 32.5309 43.1976 32.4866 43.2615 32.4531H43.432C43.5071 32.4418 43.5838 32.458 43.6479 32.4988C43.7237 32.5302 43.7945 32.5724 43.8582 32.6241C43.8844 32.6442 43.9056 32.67 43.9204 32.6996C43.9351 32.7291 43.9429 32.7617 43.9432 32.7947C43.989 32.8404 43.989 32.8802 43.989 32.9652C43.9963 33.0258 43.9799 33.0869 43.9432 33.1358C43.9436 33.1689 43.9361 33.2017 43.9213 33.2313C43.9065 33.261 43.8849 33.2867 43.8582 33.3063C43.8127 33.3534 43.7526 33.3836 43.6876 33.3918C43.6479 33.4376 43.5628 33.4376 43.4773 33.4376C43.4027 33.4408 43.3284 33.425 43.2615 33.3918C43.1352 33.3259 43.0321 33.2228 42.9661 33.0965C42.9661 33.0507 42.9204 32.9657 42.9204 32.9259C42.9185 32.8399 42.9643 32.7947 42.9643 32.7092L42.9656 32.7087ZM4.94563 33.9479L6.09654 33.3511L5.20169 34.4138L6.56522 34.289L5.4573 34.8857C5.41477 34.9255 5.37178 34.9255 5.37178 34.8857C5.36592 34.8857 5.36012 34.8845 5.35474 34.8822C5.34936 34.8798 5.34452 34.8764 5.34053 34.8721C5.33653 34.8678 5.33347 34.8627 5.33153 34.8572C5.3296 34.8517 5.32882 34.8458 5.32927 34.84L5.28674 34.8857L5.58487 35.3973L5.6274 35.3516C5.62195 35.352 5.61647 35.3512 5.61132 35.3494C5.60617 35.3476 5.60146 35.3447 5.59747 35.341C5.59348 35.3372 5.5903 35.3327 5.58813 35.3277C5.58596 35.3227 5.58485 35.3173 5.58487 35.3118L5.6274 35.2661L7.16193 34.4988C7.16193 34.4591 7.20445 34.4591 7.20445 34.4988H7.2895L6.90587 33.8166H6.86334C6.86334 33.8623 6.86334 33.8623 6.90587 33.8623L6.86334 33.9021H6.77738C6.5391 33.9528 6.29664 33.9813 6.0531 33.9872C6.09562 33.9474 6.47925 33.5212 6.52178 33.4755C6.5643 33.4298 6.60728 33.3905 6.60728 33.3905H6.64981V33.4362L6.73531 33.3905L6.3942 32.7082H6.35168V32.754C6.35168 32.7937 6.30916 32.7938 6.30916 32.8395L4.8176 33.6067H4.73255L4.69002 33.561L4.6475 33.6067L4.86058 34.1184L4.94563 34.0727C4.90311 34.0329 4.9031 34.0329 4.9031 33.9872C4.90322 33.9819 4.90439 33.9767 4.90652 33.9719C4.90866 33.9671 4.91173 33.9628 4.91556 33.9591C4.91939 33.9555 4.9239 33.9527 4.92882 33.9508C4.93375 33.949 4.93899 33.9481 4.94426 33.9483L4.94563 33.9479ZM8.48293 36.5062L7.71612 37.1427L7.46051 37.3983C7.40967 37.495 7.36685 37.5958 7.33248 37.6996C7.32824 37.7998 7.34267 37.9 7.37501 37.995C7.41248 38.1265 7.48634 38.2447 7.58809 38.3361C7.65253 38.4552 7.7587 38.5462 7.88621 38.5917C7.9704 38.6584 8.07762 38.689 8.18434 38.6767C8.28536 38.6831 8.38666 38.6696 8.48247 38.637C8.56798 38.5912 8.69555 38.5062 8.7806 38.4664L9.54741 37.7842H9.63245C9.63244 37.7897 9.63356 37.7951 9.63573 37.8001C9.6379 37.8051 9.64108 37.8096 9.64507 37.8133C9.64906 37.8171 9.65376 37.8199 9.65891 37.8218C9.66406 37.8236 9.66953 37.8244 9.67498 37.824L9.7175 37.7842L9.29136 37.3123L9.24882 37.358V37.3978C9.24882 37.3978 9.24883 37.4435 9.2063 37.4435L8.39651 38.1258C8.31101 38.2113 8.22595 38.251 8.1409 38.2113C8.09673 38.2114 8.05339 38.1993 8.01574 38.1762C7.9781 38.1531 7.94765 38.12 7.92782 38.0805C7.88815 38.0507 7.85598 38.012 7.83381 37.9676C7.81164 37.9232 7.8001 37.8743 7.8001 37.8247C7.8001 37.775 7.81164 37.7261 7.83381 37.6817C7.85598 37.6373 7.88815 37.5986 7.92782 37.5688L8.78014 36.8866C8.82267 36.8866 8.82266 36.8468 8.82266 36.8866H8.86519L8.90771 36.8468L8.52408 36.3352L8.48155 36.3749C8.48155 36.4207 8.52408 36.4207 8.52408 36.46C8.52408 36.4609 8.52407 36.5066 8.48155 36.5066L8.48293 36.5062ZM4.7737 27.8467L3.79335 28.0571C3.67559 28.0664 3.56019 28.0952 3.45179 28.1421C3.36151 28.1921 3.28754 28.267 3.23871 28.358C3.19731 28.395 3.16444 28.4406 3.14233 28.4916C3.12023 28.5426 3.10944 28.5978 3.11068 28.6533C3.06816 28.7388 3.11068 28.8692 3.11068 29.0397C3.14061 29.1771 3.19869 29.3068 3.28123 29.4206C3.33008 29.5115 3.40405 29.5864 3.49432 29.6364C3.57936 29.6821 3.70739 29.6822 3.7929 29.7215C3.90805 29.7279 4.02345 29.7145 4.13401 29.6817L5.1139 29.4659C5.15642 29.4659 5.15642 29.4659 5.1994 29.5057V29.5514H5.28445L5.1139 28.9112H5.07137V28.957C5.02885 28.9967 5.02885 28.9967 4.98587 28.9967L3.92047 29.2126C3.87905 29.2356 3.83095 29.2436 3.7843 29.2353C3.73764 29.227 3.6953 29.2028 3.66441 29.1668C3.61177 29.1033 3.56865 29.0324 3.53638 28.9565C3.53638 28.8257 3.53638 28.7407 3.57891 28.7009C3.598 28.6573 3.62741 28.619 3.66461 28.5892C3.70181 28.5595 3.74568 28.5393 3.79244 28.5303L4.85784 28.3145H4.90036C4.94289 28.3145 4.94289 28.3602 4.94289 28.3602H4.98541L4.85738 27.7201H4.81486V27.8051C4.81486 27.8051 4.81622 27.8467 4.7737 27.8467ZM12.7006 42.4331L11.8483 41.8354L12.1039 41.4943L12.6581 41.878C12.6637 41.8778 12.6693 41.8789 12.6745 41.881C12.6797 41.883 12.6845 41.8862 12.6884 41.8901C12.6924 41.8941 12.6955 41.8989 12.6976 41.9041C12.6997 41.9093 12.7007 41.9149 12.7006 41.9205C12.6975 41.9531 12.6824 41.9835 12.6581 42.0055H12.7006L13.0422 41.5364L12.9997 41.4939C12.9571 41.5364 12.9571 41.5794 12.9146 41.5794H12.8721L12.36 41.1532L12.5305 40.8976L13.3833 41.4943C13.4258 41.4943 13.4258 41.4943 13.4258 41.5369C13.4228 41.5697 13.4076 41.6002 13.3833 41.6224H13.4258L13.7665 41.1532L13.724 41.1107C13.7241 41.1163 13.7231 41.1219 13.721 41.1271C13.7189 41.1323 13.7157 41.1371 13.7118 41.141C13.7078 41.145 13.7031 41.1481 13.6978 41.1502C13.6926 41.1523 13.687 41.1534 13.6814 41.1532C13.6389 41.1958 13.6389 41.1532 13.6389 41.1532L12.3174 40.2122L12.2749 40.2579L12.3174 40.2977V40.3828L11.3371 41.7499C11.2946 41.7925 11.2946 41.7925 11.252 41.7925H11.2095L11.167 41.835L12.4473 42.7307L12.4898 42.7733C12.5324 42.8158 12.4898 42.8158 12.4898 42.8588L12.5323 42.9013L12.8739 42.3892H12.8309C12.8141 42.406 12.7935 42.4188 12.7709 42.4264C12.7483 42.434 12.7243 42.4363 12.7006 42.4331ZM15.5562 44.0106L14.6613 43.5414L14.8744 43.1578L15.4688 43.4564V43.4989C15.5113 43.5415 15.4688 43.5414 15.4688 43.584L15.5113 43.6265L15.7669 43.0723H15.7244C15.7246 43.0779 15.7235 43.0835 15.7214 43.0887C15.7193 43.0939 15.7162 43.0987 15.7122 43.1027C15.7083 43.1066 15.7035 43.1098 15.6983 43.1119C15.6931 43.1139 15.6875 43.1149 15.6819 43.1148C15.6394 43.1573 15.6394 43.1573 15.6394 43.1148L15.0449 42.8162L15.173 42.5177L16.1113 42.9868C16.1538 42.9868 16.1538 42.9868 16.1538 43.0293C16.1508 43.0621 16.1356 43.0926 16.1113 43.1148H16.1538L16.4519 42.6032L16.4094 42.5606C16.3669 42.6032 16.3669 42.6461 16.3243 42.6461H16.2818L14.8749 41.878L14.8323 41.9635C14.8748 41.9635 14.8749 41.9635 14.8749 42.006C14.9174 42.006 14.9174 42.0485 14.8749 42.0485L14.108 43.584C14.1082 43.5896 14.1071 43.5952 14.1051 43.6004C14.103 43.6056 14.0998 43.6103 14.0959 43.6143C14.0919 43.6183 14.0871 43.6214 14.0819 43.6235C14.0767 43.6256 14.0711 43.6266 14.0655 43.6265C14.0329 43.6234 14.0025 43.6082 13.9805 43.584V43.6265L15.3861 44.3535L15.4286 44.396V44.4816H15.4711L15.7267 43.9699H15.6842C15.6417 44.0106 15.5991 44.0536 15.5562 44.0106ZM23.9527 46.3133H24.6769V46.2708H24.6344C24.6346 46.2652 24.6335 46.2596 24.6314 46.2544C24.6293 46.2492 24.6262 46.2444 24.6222 46.2404C24.6183 46.2365 24.6135 46.2333 24.6083 46.2312C24.6031 46.2292 24.5975 46.2281 24.5919 46.2283L24.0377 45.1199C24.0802 45.0774 24.3358 44.7788 24.4213 44.6928L24.5919 44.5222C24.6769 44.4372 24.7199 44.4372 24.7625 44.4372V44.3535H24.0382V44.439H24.1255V44.5241L24.083 44.5666C24.083 44.6091 24.0405 44.6521 23.9975 44.6946L23.4031 45.2918V44.4811C23.4029 44.4755 23.4039 44.4699 23.406 44.4647C23.4081 44.4595 23.4112 44.4547 23.4152 44.4507C23.4192 44.4468 23.4239 44.4437 23.4291 44.4416C23.4344 44.4395 23.44 44.4385 23.4456 44.4386C23.4881 44.3961 23.4881 44.396 23.5306 44.396V44.3535L22.8452 44.3078V44.3535C22.8877 44.3535 22.8877 44.3535 22.9307 44.396V44.4386L22.8882 46.1446C22.8882 46.1871 22.8882 46.1871 22.8457 46.1871C22.8458 46.1927 22.8448 46.1983 22.8427 46.2035C22.8406 46.2087 22.8375 46.2135 22.8335 46.2174C22.8295 46.2214 22.8248 46.2245 22.8196 46.2266C22.8143 46.2287 22.8088 46.2298 22.8031 46.2296V46.2722L23.4433 46.3147V46.2722L23.4008 46.2296C23.3951 46.2298 23.3896 46.2287 23.3843 46.2266C23.3791 46.2245 23.3744 46.2214 23.3704 46.2174C23.3664 46.2135 23.3633 46.2087 23.3612 46.2035C23.3591 46.1983 23.3581 46.1927 23.3582 46.1871V45.8035L23.6993 45.4198C23.6993 45.4624 24.04 46.1021 24.04 46.1446C24.0399 46.1502 24.0409 46.1558 24.043 46.161C24.0451 46.1662 24.0482 46.171 24.0522 46.1749C24.0561 46.1789 24.0609 46.182 24.0661 46.1841C24.0713 46.1862 24.0769 46.1872 24.0825 46.1871C24.081 46.2092 24.0715 46.2301 24.0558 46.2457C24.04 46.2614 24.0192 46.2708 23.997 46.2722H23.9545L23.9527 46.3133ZM10.3165 41.1112L10.8707 41.5803L10.9132 41.5378L10.8707 41.4952V41.4527L11.1688 40.2588C11.3479 40.2015 11.535 40.1727 11.723 40.1733C11.8028 40.1363 11.8909 40.1205 11.9786 40.1276H12.1917L11.6375 39.6617L11.595 39.7014C11.595 39.7014 11.595 39.7472 11.6375 39.7472C11.6375 39.787 11.6375 39.787 11.595 39.8322H11.5511C11.5086 39.8322 11.466 39.872 11.3805 39.872C11.338 39.872 10.5707 39.9575 10.5282 39.9575L11.0824 39.3608C11.0824 39.321 11.1249 39.321 11.1249 39.321C11.1674 39.321 11.1675 39.321 11.21 39.3608V39.321L10.7413 38.8491L10.6988 38.8949C10.7042 38.8945 10.7097 38.8952 10.7148 38.8971C10.72 38.8989 10.7247 38.9018 10.7287 38.9055C10.7327 38.9092 10.7359 38.9137 10.738 38.9188C10.7402 38.9238 10.7413 38.9292 10.7413 38.9346C10.7413 38.9804 10.7413 38.9804 10.6988 39.0201L9.59039 40.3004L9.54786 40.3462C9.50534 40.3462 9.50534 40.3004 9.50534 40.3004L9.46282 40.3462L9.93196 40.8153L9.97448 40.7728C9.97448 40.7303 9.93196 40.7303 9.93196 40.6877C9.93184 40.6821 9.93284 40.6765 9.93494 40.6713C9.93703 40.6661 9.94016 40.6614 9.94413 40.6574C9.94811 40.6534 9.95284 40.6503 9.95806 40.6482C9.96327 40.6461 9.96886 40.6451 9.97448 40.6452L10.1876 40.3466L10.6562 40.2616C10.6195 40.5214 10.5624 40.7779 10.4857 41.0289V41.0714C10.4432 41.1139 10.4432 41.1139 10.4002 41.1139L10.3577 41.0714L10.3165 41.1112ZM26.3843 46.2283L26.9787 46.1857V46.1432H26.9362C26.9364 46.1376 26.9353 46.132 26.9332 46.1268C26.9312 46.1216 26.928 46.1168 26.924 46.1129C26.9201 46.1089 26.9153 46.1058 26.9101 46.1037C26.9049 46.1016 26.8993 46.1006 26.8937 46.1007C26.8512 46.0152 26.2119 44.5652 26.1694 44.5227C26.1717 44.4762 26.1565 44.4306 26.1269 44.3947C26.1268 44.3891 26.1278 44.3835 26.1299 44.3783C26.132 44.373 26.1351 44.3683 26.1391 44.3643C26.143 44.3604 26.1478 44.3572 26.153 44.3551C26.1582 44.353 26.1638 44.352 26.1694 44.3522V44.3078L25.4451 44.3503V44.3928C25.4507 44.3927 25.4563 44.3937 25.4615 44.3958C25.4668 44.3979 25.4715 44.4011 25.4755 44.405C25.4794 44.409 25.4826 44.4137 25.4847 44.419C25.4868 44.4242 25.4878 44.4297 25.4877 44.4354C25.4855 44.4946 25.471 44.5527 25.4451 44.6059C25.4026 44.734 25.0615 46.0134 25.019 46.2264C24.9765 46.2264 24.9764 46.2264 24.9764 46.269H24.9339V46.3115H25.4451V46.269L25.4026 46.2264V46.1414C25.4451 46.1414 25.4877 45.9283 25.4877 45.9283L26.2974 45.8428C26.3567 45.9186 26.4003 46.0055 26.4255 46.0984V46.1839H26.383L26.3843 46.2283ZM26.1712 45.546L25.5768 45.5886L25.8324 44.7788L26.1712 45.546ZM6.56522 36.9328L6.90678 37.4445L6.94931 37.3987L6.90678 37.359C6.90678 37.3132 6.90678 37.3132 6.94931 37.3132C6.99183 37.2277 7.88668 35.9488 7.9292 35.909C7.97172 35.8235 8.0147 35.8235 8.0147 35.8235C8.05722 35.7778 8.05722 35.7778 8.09975 35.8235L8.14228 35.7778L7.71612 35.1806H7.67359V35.2661C7.60018 35.2667 7.52767 35.2822 7.46051 35.3118C7.37546 35.3516 6.09654 35.6529 5.88346 35.738H5.84093L5.79841 35.6923L5.75587 35.738L6.05401 36.1642V36.1184C6.05401 36.0786 6.05401 36.0787 6.09654 36.0787H6.13906C6.21617 36.0301 6.30383 36.0007 6.39466 35.9931L6.86426 36.6754C6.82128 36.7151 6.69325 36.8857 6.69325 36.8857C6.69369 36.8915 6.69291 36.8974 6.69097 36.903C6.68904 36.9085 6.68598 36.9136 6.68199 36.9179C6.67799 36.9222 6.67315 36.9256 6.66777 36.9279C6.66239 36.9302 6.65658 36.9314 6.65072 36.9314H6.56567L6.56522 36.9328ZM7.03436 36.4211L6.73577 35.9095L7.54602 35.7389L7.03436 36.4211ZM3.87932 31.6461L4.04987 32.1975H4.0924V32.1577C4.09196 32.1519 4.09273 32.146 4.09467 32.1405C4.09661 32.1349 4.09967 32.1298 4.10366 32.1255C4.10765 32.1213 4.11249 32.1178 4.11787 32.1155C4.12325 32.1132 4.12906 32.112 4.13493 32.112C4.17745 32.0722 5.41523 31.0489 5.49845 31.0036C5.52135 30.9807 5.55165 30.9666 5.58396 30.9638C5.62648 30.9181 5.62648 30.9638 5.62648 30.9638H5.669L5.45593 30.2363L5.4134 30.2821C5.41341 30.2875 5.4123 30.2929 5.41013 30.298C5.40796 30.303 5.40479 30.3075 5.4008 30.3112C5.39681 30.3149 5.39209 30.3178 5.38694 30.3197C5.38179 30.3215 5.37632 30.3222 5.37087 30.3218H5.20032C5.07229 30.3218 3.75129 30.2821 3.53776 30.2821H3.49523V30.2363H3.40973L3.58027 30.748H3.6228V30.7082L3.66532 30.6625H3.70785C3.75083 30.6625 3.92139 30.7082 3.96391 30.7082L4.21952 31.4755C4.14568 31.5287 4.07456 31.5857 4.00643 31.6461H3.96391C3.96391 31.6858 3.92138 31.6858 3.92138 31.6461H3.87886H3.87932ZM4.47375 31.2597L4.30319 30.7082L5.11298 30.748L4.47375 31.2597ZM17.2173 45.1199L17.7711 45.2904L17.8136 45.2479C17.7711 45.2479 17.7711 45.2479 17.7711 45.2054V45.1629C17.7711 45.0774 17.7286 43.4994 17.7286 43.4569C17.7263 43.4104 17.7415 43.3647 17.7711 43.3288C17.7711 43.2863 17.7711 43.2863 17.8136 43.2863V43.2438L17.1318 42.9882V43.0732C17.1318 43.1158 17.0893 43.1587 17.0468 43.2438C16.9617 43.3288 16.1094 44.3521 15.9814 44.5241H15.8963L15.8538 44.5666L16.365 44.7806V44.7372L16.3225 44.6946C16.365 44.6521 16.365 44.6521 16.365 44.6091C16.4076 44.6091 16.5356 44.4386 16.5356 44.4386L17.3024 44.7367V45.0357C17.3025 45.0414 17.3015 45.047 17.2994 45.0522C17.2973 45.0574 17.2942 45.0621 17.2902 45.0661C17.2862 45.0701 17.2815 45.0732 17.2763 45.0753C17.2711 45.0774 17.2655 45.0784 17.2599 45.0783L17.2173 45.1199ZM17.3024 44.3947L16.7482 44.1816L17.3024 43.5414V44.3947ZM20.4574 43.9255H20.1163C19.9904 43.9222 19.8682 43.9682 19.7757 44.0536C19.6493 44.1011 19.5438 44.1916 19.4775 44.3092C19.3954 44.4398 19.3376 44.5841 19.307 44.7353C19.2641 44.8889 19.2641 45.0513 19.307 45.2049C19.3425 45.3212 19.3853 45.4351 19.435 45.546C19.525 45.6416 19.625 45.7273 19.7332 45.8016C19.8259 45.8495 19.9272 45.8786 20.0313 45.8871C20.1412 45.9222 20.2567 45.9366 20.3719 45.9297C20.4999 45.8871 20.6275 45.8871 20.713 45.8016C20.8322 45.7426 20.9347 45.6548 21.0112 45.546C21.1007 45.4193 21.1591 45.2733 21.1817 45.1199C21.2246 44.9663 21.2246 44.8039 21.1817 44.6503C21.1512 44.5252 21.0929 44.4086 21.0112 44.3092C20.9489 44.2037 20.861 44.1158 20.7556 44.0536C20.671 44.0106 20.5434 43.9681 20.4579 43.9255H20.4574ZM20.3719 44.3947C20.4144 44.4372 20.4574 44.4372 20.5425 44.4802L20.6705 44.6082C20.6705 44.6937 20.713 44.7362 20.713 44.8217V45.0348C20.713 45.1203 20.6705 45.1629 20.6275 45.2479L20.4995 45.3759C20.4526 45.421 20.3931 45.4508 20.3289 45.4614H20.1159C20.0733 45.4614 20.0308 45.4189 19.9453 45.3759L19.8173 45.2479C19.7834 45.1979 19.7684 45.1374 19.7747 45.0774C19.7538 45.038 19.7428 44.9941 19.7428 44.9496C19.7428 44.905 19.7538 44.8611 19.7747 44.8217C19.7747 44.7358 19.8173 44.6933 19.8598 44.6082L19.9878 44.4802C20.0304 44.4377 20.1159 44.4377 20.1584 44.3947H20.3719ZM43.8157 28.571C43.7931 28.6251 43.7815 28.683 43.7815 28.7416C43.7815 28.8001 43.7931 28.8581 43.8157 28.9121C43.8175 29.0367 43.8615 29.1569 43.9405 29.2533C44.0012 29.3721 44.0887 29.4753 44.1961 29.5546C44.3318 29.6262 44.4746 29.6834 44.6223 29.7251H45.0937C45.2188 29.6952 45.3354 29.6369 45.4343 29.5546C45.5177 29.4812 45.5887 29.3949 45.6447 29.299C45.7044 29.1921 45.7485 29.0773 45.7754 28.9579C45.7955 28.845 45.7955 28.7296 45.7754 28.6168C45.7612 28.5 45.7325 28.3854 45.6899 28.2757L45.4343 28.02C45.3041 27.9372 45.1596 27.8793 45.0082 27.8495C44.8544 27.8038 44.6906 27.8038 44.5368 27.8495C44.4028 27.8661 44.2735 27.9086 44.1559 27.9748C44.0611 28.0567 43.9871 28.16 43.94 28.2761C43.8564 28.3607 43.8564 28.4457 43.8166 28.5706L43.8157 28.571ZM44.2816 28.6565C44.2947 28.5932 44.3242 28.5344 44.3671 28.486C44.3671 28.4462 44.4128 28.4005 44.4979 28.3607C44.5377 28.315 44.5829 28.315 44.6684 28.2752H44.8788C44.9638 28.315 45.0493 28.315 45.0946 28.3607C45.1707 28.3943 45.2315 28.4551 45.2652 28.5313C45.3049 28.571 45.3049 28.6168 45.3049 28.7018C45.3268 28.7248 45.3389 28.7554 45.3389 28.7871C45.3389 28.8188 45.3268 28.8493 45.3049 28.8724C45.3049 28.9579 45.3049 28.9976 45.2652 29.0429C45.2194 29.1284 45.1797 29.1682 45.0946 29.1682C45.0746 29.1945 45.0488 29.2159 45.0192 29.2307C44.9897 29.2455 44.9571 29.2534 44.924 29.2537H44.7082C44.6232 29.2139 44.5377 29.2139 44.4979 29.1682C44.4581 29.1225 44.3671 29.0831 44.3671 29.0429C44.3242 28.9945 44.2947 28.9357 44.2816 28.8724C44.2623 28.8396 44.2521 28.8022 44.2523 28.7641C44.2524 28.726 44.2629 28.6887 44.2825 28.6561L44.2816 28.6565ZM18.0701 26.4L18.9229 26.7411L18.8374 26.4L18.0271 26.0589L18.0701 26.4ZM20.6275 28.9583C20.4938 28.9156 20.3652 28.8584 20.2439 28.7878L20.1159 28.1911C20.0733 27.85 19.9878 27.3383 19.9878 27.2532L19.6042 27.0827C19.6042 27.1682 19.7322 27.8047 19.7322 27.85L19.8177 28.1911C19.8177 28.2308 19.9458 28.8275 19.9458 28.9583C20.0738 28.9981 20.6275 29.2994 20.67 29.2994L20.6275 28.9583ZM22.7588 30.1522C22.8013 30.0269 23.0144 29.2542 23.0569 29.1289C23.0994 29.2144 23.3125 29.769 23.4831 30.0667C23.6111 29.8111 23.9092 29.1687 23.9517 29.0832C23.9943 29.1682 24.2499 30.0269 24.2924 30.2373L24.633 30.0269C24.548 29.8564 24.1644 28.6172 24.0386 28.3159C23.9536 28.4467 23.6125 29.2139 23.5274 29.3845C23.4424 29.2139 23.1013 28.4864 23.0162 28.2761C22.9312 28.4864 22.505 29.8564 22.505 29.9419L22.7588 30.1522ZM25.1456 30.2377C25.1882 30.1124 25.3162 29.8111 25.3162 29.7713L25.9979 29.7256C26.0431 29.8722 26.1001 30.0149 26.1685 30.1522L26.4666 29.9419C26.3816 29.726 25.8722 28.657 25.6573 28.2308C25.5293 28.4864 24.933 29.8568 24.8475 30.0269L25.1456 30.2377ZM25.4438 29.4704C25.4863 29.3397 25.6143 28.9986 25.6568 28.8733C25.7159 29.0615 25.787 29.2457 25.8699 29.4247L25.4438 29.4704ZM27.489 29.2999C27.3379 29.3308 27.1936 29.3886 27.0629 29.4704L27.1479 28.8733C27.1905 28.5322 27.276 28.0205 27.276 27.9354L26.9353 28.106C26.9353 28.1458 26.8498 28.7882 26.8498 28.828L26.8073 29.1691C26.7786 29.429 26.7358 29.6871 26.6792 29.9423C26.9404 29.8565 27.1964 29.7559 27.4461 29.641L27.489 29.2999ZM29.5778 28.7882C29.6633 28.6575 30.089 27.6798 30.132 27.5491C30.1879 27.8178 30.2304 28.0891 30.2591 28.3621C30.4749 28.0607 30.8992 27.2935 30.9861 27.1682V28.2313L31.2815 27.9359C31.2815 27.7654 31.2815 26.5715 31.2417 26.2701V26.3159C31.1109 26.4864 30.6016 27.464 30.4749 27.6346C30.4749 27.5098 30.3894 26.8275 30.3441 26.6112C30.217 26.8673 29.4072 28.6181 29.3647 28.743L29.5778 28.7882ZM31.6683 27.9354C31.7534 27.8047 31.9637 27.4238 32.009 27.3383L32.6034 27.0827C32.6015 27.2391 32.6149 27.3953 32.6432 27.5491L32.9843 27.1682C32.9843 26.9976 32.8988 25.9743 32.859 25.5879C32.6034 25.929 31.5787 27.5943 31.4502 27.8047L31.6683 27.9354ZM32.1795 26.9976C32.2646 26.8669 32.5202 26.4009 32.6057 26.3154V26.7818L32.1795 26.9976ZM27.8731 29.4704C27.9776 29.2941 28.0632 29.1073 28.1287 28.9131L28.7689 28.6177C28.7689 28.6575 28.8544 28.9588 28.8544 29.0841L29.1951 28.7032C29.1525 28.5326 28.8544 27.5948 28.7264 27.2537C28.5558 27.5948 27.7456 29.1284 27.6605 29.3397L27.8731 29.4704ZM28.2993 28.5719C28.3418 28.4471 28.5549 28.0205 28.5974 27.9354C28.651 28.0875 28.6938 28.2433 28.7255 28.4014L28.2993 28.5719ZM18.0271 28.106C17.9421 27.9752 17.0472 26.2313 16.9192 25.9743C16.8717 26.2982 16.8433 26.6246 16.8342 26.9519C16.7061 26.7813 16.1524 25.8038 16.0244 25.5875H15.9819C15.9819 25.8888 16.0674 27.0822 16.0674 27.293L16.408 27.5943C16.408 27.4238 16.323 26.571 16.323 26.5257C16.408 26.6108 16.9174 27.4238 17.0898 27.7196C17.1323 27.464 17.1748 26.9524 17.1748 26.8668C17.2599 26.9976 17.729 28.021 17.815 28.1472L18.0271 28.106ZM19.6897 28.7027C19.5617 28.5322 18.7089 27.0827 18.5383 26.7823H18.4958C18.4103 27.1234 18.1977 28.0214 18.1547 28.1467L18.4958 28.4878C18.5408 28.3496 18.5693 28.2065 18.5809 28.0617L19.178 28.3172C19.2206 28.363 19.3911 28.7036 19.4762 28.8289L19.6897 28.7027ZM18.6238 27.85C18.6238 27.7644 18.6664 27.4636 18.6664 27.3781C18.7969 27.5829 18.9111 27.7977 19.0079 28.0205L18.6238 27.85ZM22.3322 29.8966C22.2471 29.6863 21.4794 28.0607 21.3088 27.7649V27.7192C21.1808 28.1056 20.8827 29.0452 20.8402 29.2144L21.1383 29.5953C21.1901 29.4426 21.2328 29.287 21.2663 29.1293L21.8635 29.4247C21.906 29.5102 22.0766 29.8568 22.1191 29.9817L22.3322 29.8966ZM21.3088 28.8733C21.3712 28.722 21.4142 28.5635 21.4369 28.4014C21.5171 28.6367 21.6169 28.8649 21.735 29.0836L21.3088 28.8733ZM22.2471 34.5464H18.4976C18.3271 33.9492 18.1565 33.3072 18.029 32.6717L17.5603 32.4558C17.7308 33.1833 17.9009 33.8655 18.0715 34.5478H12.9997C11.3704 31.5182 10.5071 28.1361 10.4848 24.6963H13.6398L13.4693 24.3099H10.4857C10.5079 20.8846 11.3715 17.5173 13.0006 14.5041H18.0719C17.8589 15.3112 17.6458 16.1242 17.4775 17.0167C17.4775 17.0167 17.6056 17.0625 17.6906 17.1018L17.8612 17.1475C18.019 16.2539 18.2328 15.371 18.5013 14.5041H20.7601C20.8456 14.3336 21.0157 14.0775 21.0157 14.0775H18.6289C19.6522 10.6669 21.2288 8.19407 23.0185 7.29603C22.921 7.32179 22.8211 7.33712 22.7204 7.34176C22.5923 7.34176 22.1259 7.42681 22.1259 7.42681C20.9321 8.27958 19.8667 9.81457 19.0166 11.9006C18.7176 12.5828 18.462 13.3103 18.2064 14.0775H13.2553C14.8182 11.2394 17.2971 9.01499 20.2873 7.76746H20.1593C19.9887 7.80724 19.5191 7.93801 19.5191 7.93801C18.9247 8.10856 17.9421 8.53473 17.9421 8.53473C15.7983 9.93479 14.0284 11.8366 12.7857 14.0752H10.6974L10.3993 14.5019H12.5726C10.9642 17.521 10.1167 20.8869 10.1034 24.3076H7.20491V24.6917H10.1034C10.1185 28.1219 10.9512 31.4991 12.5323 34.5432H10.4441C10.5299 34.6802 10.6299 34.8078 10.7422 34.9241H12.745C13.9691 37.1257 15.6916 39.0102 17.7747 40.4266C17.7747 40.4266 18.499 40.7252 18.7981 40.8103C18.7981 40.8103 19.3925 41.0234 19.7354 41.1089C19.8635 41.1514 20.0336 41.1944 20.0336 41.1944C17.1493 39.8861 14.7596 37.6888 13.2146 34.9241H18.1986C18.4168 35.6958 18.6875 36.4518 19.0089 37.1866C19.8612 39.2332 20.8836 40.7252 22.035 41.5762C22.035 41.5762 22.3756 41.6187 22.6751 41.6617L22.8882 41.7042C21.1406 40.7659 19.649 38.2936 18.6257 34.9223H23.1438L22.2471 34.5464ZM41.6382 24.6917V24.3053H38.8257C38.8041 20.8902 37.9706 17.5291 36.394 14.4996H38.4393L38.1439 14.073H36.1384C34.917 11.8694 33.1939 9.98438 31.1087 8.5704C31.0365 8.54717 30.9662 8.51859 30.8983 8.48489C30.8128 8.44511 30.2582 8.27455 30.2582 8.27455C29.7049 8.05873 28.7245 7.80266 28.7245 7.80266C31.5366 8.91104 33.9683 11.1735 35.7123 14.0725H30.7282C30.4726 13.3052 30.2147 12.5778 29.9161 11.8955C29.0638 9.80909 27.9984 8.27454 26.8475 7.42177C26.75 7.39602 26.6501 7.38071 26.5494 7.37606C26.4214 7.37606 25.955 7.29055 25.955 7.29055C27.7021 8.18859 29.2796 10.6614 30.3043 14.072H29.5778C29.5778 14.072 29.6203 14.2426 29.6633 14.4987H30.4296C30.6981 15.3655 30.9119 16.2484 31.0698 17.142C31.0698 17.142 31.2801 17.0565 31.3652 17.0113H31.4507C31.2801 16.1187 31.0698 15.2659 30.8562 14.4987H35.9317C37.5606 17.5117 38.4231 20.8793 38.443 24.3044H35.4196L35.2888 24.6908H38.4439C38.4431 28.1329 37.5797 31.5199 35.9326 34.5423H30.8572C31.0755 33.8576 31.2463 33.1586 31.3684 32.4503L30.9422 32.6209C30.7717 33.3031 30.6468 33.9469 30.4763 34.5414H26.6811L25.7862 34.9223H30.3441C29.3222 38.2936 27.7872 40.7659 26.0405 41.7042C26.2234 41.6658 26.4082 41.6373 26.5942 41.6187C26.7088 41.6131 26.8228 41.5989 26.9353 41.5762C28.0437 40.6809 29.0666 39.1857 29.9189 37.1866C30.2393 36.4512 30.5106 35.6954 30.731 34.9241H35.715C34.2059 37.6603 31.8619 39.8427 29.025 41.1528C29.025 41.1528 29.7918 40.9397 30.2179 40.7691C30.5262 40.6652 30.8253 40.536 31.1123 40.3828L31.2829 40.343C33.316 38.9427 34.9948 37.0878 36.186 34.9255H38.1462C38.2317 34.8404 38.4416 34.5446 38.4416 34.5446H36.3963C37.9967 31.5072 38.8314 28.125 38.828 24.6917H41.6382ZM33.201 21.1105L34.0534 18.763C32.8997 18.9788 30.474 20.1274 26.7209 23.8792L33.201 21.1105ZM31.4511 17.7392C30.9852 17.8645 29.2783 18.7625 26.9765 22.769C28.1651 21.5858 29.4488 20.5022 30.8146 19.5289L31.4511 17.7392ZM21.1803 19.7859C21.4933 20.3774 21.968 20.8677 22.549 21.1996C23.1301 21.5316 23.7936 21.6914 24.462 21.6606C25.1284 21.6793 25.7871 21.5142 26.3659 21.1836C26.9447 20.8529 27.4214 20.3694 27.7437 19.7859H21.1803ZM28.0848 18.7228H20.8415C20.8023 18.7215 20.7632 18.7283 20.7266 18.7426C20.6901 18.757 20.6568 18.7787 20.6289 18.8063C20.601 18.8339 20.579 18.867 20.5643 18.9034C20.5496 18.9398 20.5425 18.9789 20.5434 19.0181C20.5423 19.0577 20.5493 19.0971 20.5639 19.1339C20.5784 19.1708 20.6003 19.2043 20.6282 19.2324C20.656 19.2606 20.6893 19.2828 20.726 19.2977C20.7626 19.3127 20.8019 19.3201 20.8415 19.3195H28.0876C28.1272 19.3201 28.1665 19.3127 28.2032 19.2977C28.2398 19.2828 28.2731 19.2606 28.301 19.2324C28.3288 19.2043 28.3507 19.1708 28.3652 19.1339C28.3798 19.0971 28.3868 19.0577 28.3857 19.0181C28.3863 18.9791 28.3789 18.9403 28.3641 18.9041C28.3493 18.868 28.3272 18.8352 28.2994 18.8078C28.2715 18.7804 28.2384 18.7589 28.202 18.7447C28.1656 18.7305 28.1267 18.7238 28.0876 18.725L28.0848 18.7228ZM22.205 23.881C18.4556 20.1292 16.0253 18.9806 14.8314 18.7648L15.7263 21.1123L22.205 23.881ZM18.1131 19.5321C19.478 20.5058 20.761 21.5895 21.9494 22.7722C19.6476 18.7648 17.9425 17.8663 17.4739 17.7424L18.1131 19.5321ZM25.9545 24.9043L26.2526 21.7095C25.8128 21.9255 25.3354 22.0549 24.8466 22.0904L24.5475 27.3374C24.5475 27.3772 24.505 27.3771 24.4625 27.3771C24.42 27.3771 24.377 27.3772 24.377 27.3374L24.0789 22.0904C23.5955 22.049 23.1214 21.9339 22.6728 21.7493L22.9709 24.9043L12.8698 20.726C13.1679 21.4932 16.8758 31.2597 16.9188 31.3904L23.3121 34.2441L23.4826 31.7316C23.4826 31.7316 23.4826 31.6858 23.5251 31.6858L23.5677 31.7316L23.7807 34.46L24.0363 37.0581C24.04 37.1688 24.0865 37.2737 24.166 37.3507C24.2456 37.4277 24.352 37.4707 24.4627 37.4707C24.5734 37.4707 24.6798 37.4277 24.7594 37.3507C24.839 37.2737 24.8855 37.1688 24.8891 37.0581L25.1447 34.46L25.3578 31.7316L25.4003 31.6858C25.4428 31.6858 25.4429 31.7316 25.4429 31.7316L25.6134 34.2441L32.0081 31.3904C32.0479 31.2597 35.7575 21.4937 36.0534 20.726L25.9545 24.9043ZM27.2348 16.3318C27.284 16.1653 27.3127 15.9935 27.3203 15.8201C27.2946 15.5264 27.2227 15.2386 27.1072 14.9673C27.0087 14.7316 26.9233 14.4906 26.8516 14.2453C26.8039 13.9195 26.7755 13.591 26.7666 13.2618V13.0515C26.6056 13.1275 26.4491 13.2129 26.2979 13.3071C24.7634 14.1141 22.7606 15.2225 22.7606 18.0821V18.298H25.7867C25.9138 18.1681 26.9787 17.2303 27.2348 16.3318ZM28.3862 12.8356C28.0025 11.8978 28.4287 10.6189 28.4287 10.6189C26.4255 11.0908 26.0418 12.3244 25.4451 12.4547C24.9764 12.5403 25.1045 11.3861 25.1045 11.3861C25.1045 11.3861 22.206 12.8809 21.2256 15.1813C20.3733 17.1823 21.1401 18.2966 21.1401 18.2966H22.205C22.12 14.9655 24.4209 13.6866 26.0002 12.8338C26.3409 12.6235 26.682 12.4529 26.9376 12.2824L27.4913 11.896L27.3633 12.5361C27.2917 13.0597 27.3061 13.5915 27.4058 14.1105C27.4516 14.3314 27.5231 14.5463 27.6189 14.7506C27.884 15.2929 27.9446 15.9126 27.7895 16.4959C27.5283 17.1748 27.121 17.788 26.5965 18.292H27.3633C27.3633 18.292 28.131 17.9454 28.7703 16.581C29.4086 14.757 28.7693 14.0295 28.3857 12.8361L28.3862 12.8356ZM21.7793 39.2748H21.8219C21.8219 39.2351 21.8219 39.2351 21.8653 39.2351L21.9078 39.1893H21.9929V40.0874H21.9504V40.1271H22.4616V40.0874H22.419V38.7613C22.4616 38.7216 22.4616 38.7216 22.5041 38.7216H21.9499C21.9499 38.7216 21.9924 38.7216 21.9924 38.7613V38.8921H21.9074L21.8649 38.9319H21.8214V38.8464H21.7789L21.7793 39.2748ZM23.0597 39.701L22.8466 40.0421H22.9746C23.0171 40.0421 23.0601 40.0878 23.1026 40.0878H23.2307C23.2968 40.1201 23.3704 40.1338 23.4437 40.1276C23.5288 40.1276 23.6568 40.0878 23.7419 40.0878C23.8357 40.0452 23.9221 39.9876 23.9975 39.9173C24.0757 39.8652 24.1354 39.7896 24.168 39.7014C24.2216 39.5955 24.2506 39.479 24.2531 39.3603C24.2531 39.2753 24.2106 39.15 24.2106 39.0649C24.1673 38.9832 24.1095 38.9101 24.04 38.8491C23.9748 38.7983 23.9031 38.7563 23.8269 38.7243C23.6989 38.7243 23.6138 38.6786 23.4858 38.6786C23.4121 38.6756 23.3388 38.6913 23.2727 38.7243C23.2082 38.7336 23.1484 38.7634 23.1022 38.8093C23.0382 38.8404 22.9804 38.8829 22.9316 38.9346C22.8972 39.0011 22.8825 39.0759 22.8891 39.1505V39.3608C22.9316 39.4065 22.9741 39.4463 23.0171 39.4916C23.0649 39.5354 23.124 39.5648 23.1877 39.5766C23.2538 39.6089 23.3274 39.6226 23.4008 39.6164C23.4879 39.6227 23.5753 39.6091 23.6564 39.5766C23.7433 39.5538 23.8287 39.5254 23.912 39.4916C23.8694 39.5314 23.8694 39.6164 23.8269 39.6621C23.8269 39.7019 23.7844 39.7476 23.7414 39.7874C23.6989 39.7874 23.6564 39.8331 23.6134 39.8331C23.561 39.861 23.5022 39.8747 23.4428 39.8729H23.3148C23.2975 39.8576 23.2771 39.8462 23.255 39.8393C23.233 39.8325 23.2097 39.8304 23.1868 39.8331C23.1442 39.8331 23.1442 39.7874 23.1013 39.7874V39.7019L23.0597 39.701ZM23.5283 38.979H23.6134C23.6457 38.9817 23.676 38.9958 23.6989 39.0188C23.7414 39.0188 23.7414 39.0188 23.7839 39.0645V39.2351C23.7414 39.2748 23.7414 39.3201 23.6989 39.3201C23.6564 39.3201 23.6134 39.3201 23.6134 39.3599H23.4003C23.4003 39.3201 23.3578 39.3201 23.3153 39.3201C23.2727 39.3201 23.2727 39.2744 23.2297 39.2351V39.0645C23.2723 39.0188 23.2723 39.0188 23.3153 39.0188C23.338 38.9959 23.3682 38.9818 23.4003 38.979H23.5283ZM25.2759 38.7234C25.1707 38.7245 25.0678 38.7539 24.9778 38.8084C24.8928 38.8084 24.8068 38.8939 24.7218 38.9337C24.6792 39.0192 24.6362 39.0645 24.5937 39.1495C24.5458 39.2413 24.5168 39.3418 24.5082 39.4449C24.5104 39.5511 24.5398 39.6548 24.5937 39.7463C24.6261 39.8339 24.6772 39.9135 24.7436 39.9793C24.8099 40.0451 24.8899 40.0955 24.9778 40.1271C25.0629 40.1271 25.1484 40.1729 25.2759 40.1729C25.361 40.1729 25.4465 40.1271 25.5316 40.1271C25.6266 40.0866 25.7132 40.0287 25.7872 39.9566C25.8398 39.8931 25.8829 39.8222 25.9152 39.7463C25.9688 39.6548 25.9981 39.551 26.0002 39.4449C25.9918 39.3418 25.9629 39.2414 25.9152 39.1495C25.8727 39.064 25.8297 39.0188 25.7872 38.9337C25.7017 38.8939 25.6166 38.8084 25.5316 38.8084C25.454 38.7598 25.3658 38.7307 25.2746 38.7234H25.2759ZM25.2759 39.0645H25.404C25.4465 39.1043 25.489 39.15 25.489 39.1898C25.5315 39.2355 25.5741 39.2753 25.5741 39.3206V39.6159C25.5741 39.6617 25.5315 39.7014 25.489 39.7467C25.489 39.7467 25.4465 39.7865 25.404 39.8318C25.3615 39.8318 25.3185 39.8715 25.2759 39.8715C25.1904 39.8715 25.1479 39.8318 25.1054 39.8318C25.0629 39.786 25.0203 39.7467 25.0203 39.7467C24.9778 39.701 24.9778 39.6612 24.9348 39.6159V39.3206C24.9774 39.2748 24.9774 39.2355 25.0203 39.1898C25.0203 39.15 25.0629 39.1047 25.1054 39.0645H25.2759ZM26.2558 39.0188H27.1507L26.5563 40.0023C26.5563 40.0421 26.5137 40.0421 26.5137 40.0421C26.5142 40.048 26.5134 40.0538 26.5115 40.0594C26.5095 40.0649 26.5065 40.07 26.5025 40.0743C26.4985 40.0786 26.4936 40.082 26.4883 40.0843C26.4829 40.0866 26.4771 40.0878 26.4712 40.0878V40.1276H27.0656V40.0878H27.0231L26.9806 40.0421C26.9806 40.0023 26.9806 40.0023 27.0231 40.0023V39.9182L27.5773 38.9804V38.6379H27.5348C27.5348 38.6777 27.5348 38.6777 27.4922 38.6777V38.7234H26.2577V38.6777C26.2151 38.6777 26.2151 38.6777 26.2151 38.6379V39.064C26.2151 39.064 26.2151 39.0183 26.2577 39.0183L26.2558 39.0188Z" fill="white"/>
<defs>
<clipPath id="clip0_97_2">
<rect width="95.325" height="22.5951" fill="white" transform="translate(71 13.917)"/>
</clipPath>
</defs>
</svg>
