<svg width="339" height="26" viewBox="0 0 339 26" fill="none" xmlns="http://www.w3.org/2000/svg">
<path d="M0.000289368 24.7852V2.65773H9.70422L21.6023 17.09H21.6332V2.65773H29.2357V24.7852H19.5627L7.63363 10.1675H7.60273V24.7852H0.000289368ZM45.2718 25.2796C37.0513 25.2796 31.4886 21.9729 31.4886 16.781C31.4886 11.8054 36.6496 8.3132 44.0357 8.3132C51.2982 8.3132 56.0883 11.6818 56.0883 16.8119C56.0883 17.2754 56.0265 17.9553 55.872 18.4807H39.1837C40.0181 20.3349 42.7995 21.0766 45.7972 21.0766C48.9494 21.0766 52.1326 20.3968 53.7705 19.4696L55.7793 22.9309C53.616 24.3216 49.5366 25.2796 45.2718 25.2796ZM39.0601 15.3594H48.7331C48.6404 13.536 46.5389 12.2998 43.9739 12.2998C41.347 12.2998 39.3382 13.5669 39.0601 15.3594ZM63.2146 24.7852L55.7976 8.83858H63.3383L67.5721 19.0679H67.603L72.7022 8.83858H79.2848L84.3531 19.2533H84.384L88.6179 8.83858H96.1895L88.8033 24.7852H80.9537L76.009 14.494H75.9472L70.9716 24.7852H63.2146ZM104.875 24.7852V2.65773H115.321L122.985 17.6772H123.047L130.619 2.65773H141.188V24.7852H133.585V10.9092H133.524L126.601 24.7852H119.709L112.54 10.9092H112.478V24.7852H104.875ZM157.239 25.2796C149.019 25.2796 143.456 21.9729 143.456 16.781C143.456 11.8054 148.617 8.3132 156.003 8.3132C163.266 8.3132 168.056 11.6818 168.056 16.8119C168.056 17.2754 167.994 17.9553 167.839 18.4807H151.151C151.986 20.3349 154.767 21.0766 157.765 21.0766C160.917 21.0766 164.1 20.3968 165.738 19.4696L167.747 22.9309C165.583 24.3216 161.504 25.2796 157.239 25.2796ZM151.028 15.3594H160.701C160.608 13.536 158.506 12.2998 155.941 12.2998C153.314 12.2998 151.306 13.5669 151.028 15.3594ZM179.107 25.2796C173.421 25.2796 169.713 21.942 169.713 16.8119C169.713 11.6818 173.421 8.3132 179.107 8.3132C183.094 8.3132 186.494 10.1366 187.73 12.9179H187.761V1.7306H195.085V24.7852H188.78L187.822 20.6749H187.792C186.524 23.4872 183.094 25.2796 179.107 25.2796ZM182.507 20.4277C185.845 20.4277 188.008 19.0061 188.008 16.8119C188.008 14.6177 185.845 13.1652 182.507 13.1652C179.169 13.1652 177.006 14.6177 177.006 16.8119C177.006 19.0061 179.169 20.4277 182.507 20.4277ZM201.321 7.13884C198.972 7.13884 197.273 5.65544 197.273 3.55395C197.273 1.45247 198.972 -3.31301e-05 201.321 -3.31301e-05C203.67 -3.31301e-05 205.369 1.45247 205.369 3.55395C205.369 5.65544 203.67 7.13884 201.321 7.13884ZM197.674 24.7852V8.83858H204.968V24.7852H197.674ZM214.987 25.2796C209.919 25.2796 206.952 23.6726 206.952 20.8912C206.952 17.7081 210.815 15.5448 217.429 14.9267L223.517 14.3704C224.197 14.3086 224.599 14.0614 224.599 13.7523C224.599 12.9797 222.837 12.3926 220.148 12.3926C216.285 12.3926 211.959 13.6287 208.93 15.5757L207.014 11.7745C210.105 9.67299 215.111 8.3132 220.148 8.3132C227.164 8.3132 231.799 10.5383 231.799 14.4631V24.7852H225.464L224.475 21.3239H224.444C222.868 23.7653 219.376 25.2796 214.987 25.2796ZM217.583 20.953C221.725 20.953 224.475 19.6242 224.475 17.6772V17.6154L217.923 18.2026C215.544 18.388 214.277 18.8515 214.277 19.686C214.277 20.4895 215.42 20.953 217.583 20.953ZM239.955 24.7852L250.988 2.65773H260.352L271.138 24.7852H262.763L261.032 20.9221H249.999L248.3 24.7852H239.955ZM251.575 16.3792H259.487L255.593 7.63331H255.531L251.575 16.3792ZM286.149 8.3132C289.703 8.3132 292.145 11.0637 292.392 15.3285L285.717 16.6264C285.593 14.2468 284.542 12.7325 283.028 12.7325C280.957 12.7325 279.721 14.6486 279.721 17.6772V24.7852H272.397V8.83858H278.485L279.474 12.5162H279.505C280.679 9.92022 283.275 8.3132 286.149 8.3132ZM305.751 25.2796C300.56 25.2796 297.376 22.9309 297.376 19.0988L297.346 13.2888H292.895V8.83858H297.346V4.57379L304.639 3.27581V8.83858H314.374V13.2888H304.639V17.4609C304.639 19.3769 305.628 20.3659 307.853 20.3659C310.016 20.3659 311.623 19.5932 313.354 18.0171L314.899 22.1274C312.427 24.3525 309.676 25.2796 305.751 25.2796ZM327.893 25.2796C323.319 25.2796 318.405 24.2598 315.716 22.7455L317.632 19.037C319.796 20.3659 323.813 21.3548 327.429 21.3548C330.89 21.3548 332.436 20.8603 332.436 20.1186C332.436 19.4696 331.292 19.1297 329.098 18.9752L325.142 18.6661C319.765 18.2953 317.014 16.9973 317.014 14.0923C317.014 10.1056 321.557 8.3132 327.831 8.3132C331.199 8.3132 334.537 9.024 337.349 10.4147L335.619 13.7833C333.641 12.7634 330.612 11.9908 327.738 11.9908C325.173 11.9908 323.195 12.3926 323.195 13.1961C323.195 13.8142 324.153 14.0614 326.069 14.2159L330.025 14.5559C335.866 14.9885 338.802 16.3483 338.802 19.5314C338.802 23.5181 334.135 25.2796 327.893 25.2796Z" fill="#7FBDEF"/>
</svg>
